<svg width="42" height="42" viewBox="0 0 42 42" fill="none" xmlns="http://www.w3.org/2000/svg">
<g clip-path="url(#clip0_254_5490)">
<path fill-rule="evenodd" clip-rule="evenodd" d="M0 20.9389C0 15.3855 2.20605 10.0596 6.13285 6.13285C10.0596 2.20605 15.3855 0 20.9389 0C26.4922 0 31.8181 2.20605 35.7449 6.13285C39.6717 10.0596 41.8777 15.3855 41.8777 20.9389C41.8777 26.4922 39.6717 31.8181 35.7449 35.7449C31.8181 39.6717 26.4922 41.8777 20.9389 41.8777C15.3855 41.8777 10.0596 39.6717 6.13285 35.7449C2.20605 31.8181 0 26.4922 0 20.9389ZM19.744 29.9007L31.7992 14.8303L29.6215 13.0882L19.3419 25.9335L12.0608 19.8668L10.274 22.0109L19.744 29.9007Z" fill="#EEB118"/>
</g>
<defs>
<clipPath id="clip0_254_5490">
<rect width="41.8777" height="41.8777" fill="white"/>
</clipPath>
</defs>
</svg>
