<svg width="20" height="20" viewBox="0 0 20 20" fill="none" xmlns="http://www.w3.org/2000/svg">
<path d="M19.1873 0.81317C18.821 0.444205 18.3578 0.18654 17.8511 0.0700141C17.3444 -0.0465116 16.8151 -0.0171308 16.3245 0.154754L2.29415 5.00738C1.56298 5.2602 0.962773 5.72036 0.555358 6.34058C0.182248 6.91912 -0.0108601 7.59533 0.00047159 8.28366C0.0118033 8.97198 0.227065 9.64147 0.619017 10.2074C1.04826 10.8131 1.66302 11.2551 2.40146 11.4824L5.51527 12.4446C5.71873 12.5079 5.93567 12.5143 6.14249 12.463C6.34932 12.4117 6.53813 12.3046 6.68841 12.1536L9.18746 9.65449C9.3411 9.50085 9.54948 9.41454 9.76675 9.41454C9.98403 9.41454 10.1924 9.50085 10.346 9.65449C10.4997 9.80813 10.586 10.0165 10.586 10.2338C10.586 10.4511 10.4997 10.6594 10.346 10.8131L7.84699 13.3122C7.6959 13.4624 7.58889 13.6512 7.53759 13.8581C7.48628 14.0649 7.49264 14.2818 7.55598 14.4853L8.51813 17.5991C8.74549 18.3376 9.18746 18.9523 9.79312 19.3816C10.3576 19.7768 11.0284 19.9924 11.7174 20H11.7756C12.4446 20.0023 13.0996 19.8088 13.6599 19.4434C14.2801 19.036 14.7403 18.4358 14.9931 17.7046L19.8457 3.67418C20.0172 3.18378 20.0464 2.65484 19.9299 2.14854C19.8134 1.64224 19.5559 1.17927 19.1873 0.81317Z" fill="white"/>
</svg>
