<svg width="22" height="22" viewBox="0 0 22 22" fill="none" xmlns="http://www.w3.org/2000/svg">
<path d="M5.16652 2.26957C6.89323 1.11581 8.9233 0.5 11 0.5C13.7848 0.5 16.4555 1.60625 18.4246 3.57538C20.3938 5.54451 21.5 8.21523 21.5 11C21.5 13.0767 20.8842 15.1068 19.7304 16.8335C18.5767 18.5602 16.9368 19.906 15.0182 20.7007C13.0996 21.4955 10.9884 21.7034 8.95156 21.2982C6.91476 20.8931 5.04384 19.8931 3.57538 18.4246C2.10693 16.9562 1.1069 15.0852 0.70176 13.0484C0.296615 11.0116 0.50455 8.90045 1.29927 6.98182C2.09399 5.0632 3.4398 3.42332 5.16652 2.26957Z" fill="#F9FAFB" stroke="#171717"/>
<path d="M9.69471 15.6947L16.6947 8.69471C16.8769 8.50611 16.9777 8.25351 16.9754 7.99131C16.9731 7.72911 16.8679 7.4783 16.6825 7.29289C16.4971 7.10748 16.2463 7.00232 15.9841 7.00004C15.7219 6.99776 15.4693 7.09855 15.2807 7.28071L8.98771 13.5737L6.69471 11.2807C6.50611 11.0986 6.25351 10.9978 5.99131 11C5.72911 11.0023 5.4783 11.1075 5.29289 11.2929C5.10749 11.4783 5.00232 11.7291 5.00004 11.9913C4.99776 12.2535 5.09855 12.5061 5.28071 12.6947L8.28071 15.6947C8.46824 15.8822 8.72255 15.9875 8.98771 15.9875C9.25288 15.9875 9.50718 15.8822 9.69471 15.6947Z" fill="#171717"/>
</svg>
