<svg width="43" height="22" viewBox="0 0 43 22" fill="none" xmlns="http://www.w3.org/2000/svg">
<path d="M1.3133 12.1311C1.31379 12.1316 1.3142 12.1322 1.31478 12.1326L9.87526 20.6518C10.5166 21.29 11.5539 21.2877 12.1922 20.6463C12.8305 20.005 12.8281 18.9677 12.1867 18.3294L6.43924 12.6097L41.1351 12.6097C42.04 12.6097 42.7734 11.8762 42.7734 10.9714C42.7734 10.0666 42.04 9.3331 41.1351 9.3331L6.43932 9.3331L12.1867 3.61345C12.828 2.97516 12.8304 1.93787 12.1922 1.29655C11.5538 0.655075 10.5164 0.652864 9.87518 1.29099L1.31469 9.81018C1.3142 9.81067 1.31379 9.81124 1.31322 9.81173C0.671577 10.4521 0.673626 11.4928 1.3133 12.1311Z" fill="black"/>
</svg>
