<svg width="14" height="13" viewBox="0 0 14 13" fill="none" xmlns="http://www.w3.org/2000/svg">
<path d="M3.36 2.34H13.16C13.3828 2.34 13.5964 2.42218 13.754 2.56846C13.9115 2.71473 14 2.91313 14 3.12V12.22C14 12.4269 13.9115 12.6253 13.754 12.7715C13.5964 12.9178 13.3828 13 13.16 13H3.36C3.13722 13 2.92356 12.9178 2.76603 12.7715C2.6085 12.6253 2.52 12.4269 2.52 12.22V3.12C2.52 2.91313 2.6085 2.71473 2.76603 2.56846C2.92356 2.42218 3.13722 2.34 3.36 2.34ZM4.2 11.44H12.32V3.9H4.2V11.44ZM4.99189e-07 0.78V9.88C4.99189e-07 10.0869 0.088501 10.2853 0.246032 10.4315C0.403562 10.5778 0.617219 10.66 0.84 10.66C1.06278 10.66 1.27644 10.5778 1.43397 10.4315C1.5915 10.2853 1.68 10.0869 1.68 9.88V1.56H10.64C10.8628 1.56 11.0764 1.47782 11.234 1.33154C11.3915 1.18526 11.48 0.986869 11.48 0.78C11.48 0.573131 11.3915 0.374735 11.234 0.228457C11.0764 0.0821784 10.8628 0 10.64 0H0.84C0.617219 0 0.403562 0.0821784 0.246032 0.228457C0.088501 0.374735 4.99189e-07 0.573131 4.99189e-07 0.78Z" fill="black"/>
</svg>
