<svg width="20" height="21" viewBox="0 0 20 21" fill="none" xmlns="http://www.w3.org/2000/svg">
<path d="M4 7.5V17.5C4 18.0304 4.21071 18.5391 4.58579 18.9142C4.96086 19.2893 5.46957 19.5 6 19.5H15C15.5304 19.5 16.0391 19.2893 16.4142 18.9142C16.7893 18.5391 17 18.0304 17 17.5V12.5M2 3.5V1.5M6 3.5V1.5M7 4.1V5.5C7 6.03043 6.78929 6.53914 6.41421 6.91421C6.03914 7.28929 5.53043 7.5 5 7.5H3C2.46957 7.5 1.96086 7.28929 1.58579 6.91421C1.21071 6.53914 1 6.03043 1 5.5V4.1C1 3.94087 1.06321 3.78826 1.17574 3.67574C1.28826 3.56321 1.44087 3.5 1.6 3.5H6.4C6.55913 3.5 6.71174 3.56321 6.82426 3.67574C6.93679 3.78826 7 3.94087 7 4.1Z" stroke="url(#paint0_linear_257_6901)" stroke-width="1.5" stroke-linecap="round"/>
<path d="M16.167 2.5L14.5 5.5H18.5L16.833 8.5" stroke="url(#paint1_linear_257_6901)" stroke-width="1.5" stroke-linecap="round" stroke-linejoin="round"/>
<defs>
<linearGradient id="paint0_linear_257_6901" x1="9" y1="1.5" x2="9" y2="19.5" gradientUnits="userSpaceOnUse">
<stop stop-color="#4F0A83"/>
<stop offset="0.514" stop-color="#3C118C"/>
<stop offset="1" stop-color="#1154BD"/>
</linearGradient>
<linearGradient id="paint1_linear_257_6901" x1="16.5" y1="2.5" x2="16.5" y2="8.5" gradientUnits="userSpaceOnUse">
<stop stop-color="#4F0A83"/>
<stop offset="0.514" stop-color="#3C118C"/>
<stop offset="1" stop-color="#1154BD"/>
</linearGradient>
</defs>
</svg>
