<svg width="20" height="22" viewBox="0 0 20 22" fill="none" xmlns="http://www.w3.org/2000/svg">
<path d="M3.56543 0.957275H16.7654C17.8654 0.957275 18.7654 1.85728 18.7654 2.95728V5.15728C18.7654 5.95728 18.2654 6.95728 17.7654 7.45728L13.4654 11.2573C12.8654 11.7573 12.4654 12.7573 12.4654 13.5573V17.8573C12.4654 18.4573 12.0654 19.2573 11.5654 19.5573L10.1654 20.4573C8.86543 21.2573 7.06543 20.3573 7.06543 18.7573V13.4573C7.06543 12.7573 6.66543 11.8573 6.26543 11.3573L2.46543 7.35728C1.96543 6.85728 1.56543 5.95728 1.56543 5.35728V3.05728C1.56543 1.85728 2.46543 0.957275 3.56543 0.957275Z" stroke="#262626" stroke-width="1.5" stroke-miterlimit="10" stroke-linecap="round" stroke-linejoin="round"/>
</svg>
