<svg width="16" height="15" viewBox="0 0 16 15" fill="none" xmlns="http://www.w3.org/2000/svg">
<path fill-rule="evenodd" clip-rule="evenodd" d="M3.6352 0.826848C3.92809 0.533954 4.40296 0.533954 4.69586 0.826848L7.69586 3.82685C7.98875 4.11974 7.98875 4.59461 7.69586 4.88751C7.40296 5.1804 6.92809 5.1804 6.6352 4.88751L4.91553 3.16784L4.91553 13.3572C4.91553 13.7714 4.57974 14.1072 4.16553 14.1072C3.75131 14.1072 3.41553 13.7714 3.41553 13.3572L3.41553 3.16784L1.69586 4.88751C1.40296 5.1804 0.92809 5.1804 0.635197 4.88751C0.342304 4.59461 0.342304 4.11974 0.635197 3.82685L3.6352 0.826848Z" fill="#28303F"/>
<path opacity="0.4" fill-rule="evenodd" clip-rule="evenodd" d="M12.6959 13.8875C12.403 14.1804 11.9281 14.1804 11.6352 13.8875L8.6352 10.8875C8.3423 10.5946 8.3423 10.1197 8.6352 9.82685C8.92809 9.53395 9.40296 9.53395 9.69586 9.82685L11.4155 11.5465L11.4155 1.35718C11.4155 0.942964 11.7513 0.607177 12.1655 0.607177C12.5797 0.607177 12.9155 0.942964 12.9155 1.35718L12.9155 11.5465L14.6352 9.82685C14.9281 9.53395 15.403 9.53395 15.6959 9.82685C15.9888 10.1197 15.9888 10.5946 15.6959 10.8875L12.6959 13.8875Z" fill="#28303F"/>
</svg>
