<svg width="25" height="25" viewBox="0 0 25 25" fill="none" xmlns="http://www.w3.org/2000/svg">
<path d="M11.6655 22.6072C6.01553 22.6072 1.41553 18.0072 1.41553 12.3572C1.41553 6.70718 6.01553 2.10718 11.6655 2.10718C17.3155 2.10718 21.9155 6.70718 21.9155 12.3572C21.9155 18.0072 17.3155 22.6072 11.6655 22.6072ZM11.6655 3.60718C6.83553 3.60718 2.91553 7.53718 2.91553 12.3572C2.91553 17.1772 6.83553 21.1072 11.6655 21.1072C16.4955 21.1072 20.4155 17.1772 20.4155 12.3572C20.4155 7.53718 16.4955 3.60718 11.6655 3.60718Z" fill="#667085"/>
<path d="M22.1655 23.6071C21.9755 23.6071 21.7855 23.5371 21.6355 23.3871L19.6355 21.3871C19.3455 21.0971 19.3455 20.6171 19.6355 20.3271C19.9255 20.0371 20.4055 20.0371 20.6955 20.3271L22.6955 22.3271C22.9855 22.6171 22.9855 23.0971 22.6955 23.3871C22.5455 23.5371 22.3555 23.6071 22.1655 23.6071Z" fill="#667085"/>
</svg>
