<svg width="168" height="97" viewBox="0 0 168 97" fill="none" xmlns="http://www.w3.org/2000/svg">
<path d="M125.523 94.6415C128.2 87.615 129.917 84.6251 138.003 88.6682C141.288 90.3106 142.755 93.6815 146.643 93.6815C150.527 93.6815 154.02 88.652 156.457 86.2148C159.218 83.454 164.028 89.6327 165.843 86.0015" stroke="#18181B" stroke-width="3.84" stroke-linecap="round"/>
<path d="M2.64062 8.75488C4.03212 11.4615 8.57034 23.8811 13.7577 22.0104C15.6171 21.3399 16.7725 17.7686 16.9836 15.9764C17.1902 14.222 16.394 12.1677 16.1135 10.4406C15.9751 9.58802 14.8414 7.46116 15.5838 7.90422C18.4656 9.6241 22.5901 19.8627 25.8575 19.5219C29.2948 19.1634 30.9678 11.5039 30.6345 8.77228C30.4026 6.87099 29.2552 1.29647 29.9983 3.06136C31.6579 7.0028 33.6941 15.3834 38.1427 17.1087C43.9173 19.3482 50.7682 14.0829 54.7712 10.9503" stroke="url(#paint0_linear_0_1)" stroke-width="3.84" stroke-linecap="round"/>
<defs>
<linearGradient id="paint0_linear_0_1" x1="6.1636" y1="7.27152" x2="47.1963" y2="-2.79896" gradientUnits="userSpaceOnUse">
<stop stop-color="#D9B227"/>
<stop offset="1" stop-color="#FD4141"/>
</linearGradient>
</defs>
</svg>
