<svg width="130" height="655" viewBox="0 0 130 655" fill="none" xmlns="http://www.w3.org/2000/svg">
<path d="M123.166 124.702C92.1705 108.55 65.4612 86.9109 46.9182 56.8408C38.1136 42.563 28.2508 24.7244 26.7246 7.60809" stroke="#18181B" stroke-width="3.84" stroke-linecap="round"/>
<path d="M105.838 163.577C71.4296 153.25 25.3595 130.115 12.2869 100.094" stroke="#18181B" stroke-width="3.84" stroke-linecap="round"/>
<path d="M115.542 145.227C90.6061 138.466 68.5749 121.135 49.0948 104.844C42.7214 99.5147 36.0378 92.3428 30.4204 86.1908C25.4553 80.7533 20.7285 74.0069 16.5175 68.0567C8.02439 56.0557 6.36902 49.5945 3.05071 44.2134" stroke="#18181B" stroke-width="3.84" stroke-linecap="round"/>
<path d="M27 581.161C29.6768 574.134 31.3938 571.145 39.48 575.188C42.7648 576.83 44.2318 580.201 48.12 580.201C52.0031 580.201 55.4962 575.171 57.9333 572.734C60.6942 569.974 65.5044 576.152 67.32 572.521" stroke="#18181B" stroke-width="3.84" stroke-linecap="round"/>
<path d="M75 639.313C76.3915 642.02 80.9297 654.44 86.1171 652.569C87.9765 651.898 89.1318 648.327 89.3429 646.535C89.5496 644.781 88.7533 642.726 88.4729 640.999C88.3345 640.147 87.2008 638.02 87.9431 638.463C90.825 640.183 94.9494 650.421 98.2168 650.081C101.654 649.722 103.327 642.063 102.994 639.331C102.762 637.43 101.615 631.855 102.358 633.62C104.017 637.561 106.053 645.942 110.502 647.667C116.277 649.907 123.128 644.641 127.131 641.509" stroke="url(#paint0_linear_0_1)" stroke-width="3.84" stroke-linecap="round"/>
<defs>
<linearGradient id="paint0_linear_0_1" x1="78.523" y1="637.83" x2="119.556" y2="627.76" gradientUnits="userSpaceOnUse">
<stop stop-color="#D9B227"/>
<stop offset="1" stop-color="#FD4141"/>
</linearGradient>
</defs>
</svg>
