<svg width="93" height="93" viewBox="0 0 93 93" fill="none" xmlns="http://www.w3.org/2000/svg">
<path d="M92.8096 5.57053L92.8096 74.2188C92.8096 75.5078 92.2975 76.7441 91.386 77.6556C90.4746 78.567 89.2383 79.0791 87.9493 79.0791C86.6603 79.0791 85.424 78.567 84.5125 77.6556C83.6011 76.7441 83.089 75.5078 83.089 74.2188L83.0959 17.2888L9.00377 91.3809C8.09344 92.2912 6.85876 92.8026 5.57136 92.8026C4.28395 92.8026 3.04928 92.2912 2.13895 91.3809C1.22861 90.4705 0.717187 89.2359 0.717187 87.9485C0.717187 86.6611 1.22861 85.4264 2.13895 84.5161L76.231 10.424L19.301 10.4308C18.012 10.4308 16.7758 9.91876 15.8643 9.00728C14.9528 8.0958 14.4407 6.85956 14.4407 5.57053C14.4407 4.2815 14.9528 3.04527 15.8643 2.13378C16.7757 1.2223 18.012 0.710233 19.301 0.710233L87.9493 0.710233C88.5878 0.709428 89.2202 0.834595 89.8102 1.07856C90.4003 1.32253 90.9364 1.6805 91.3878 2.13199C91.8393 2.58347 92.1973 3.11958 92.4413 3.70962C92.6852 4.29966 92.8104 4.93204 92.8096 5.57053Z" fill="black"/>
</svg>
