<svg width="26" height="20" viewBox="0 0 26 20" fill="none" xmlns="http://www.w3.org/2000/svg">
<g clip-path="url(#clip0_111_2711)">
<path d="M25.4258 3.71074C25.2767 3.15962 24.9857 2.65718 24.582 2.25345C24.1783 1.84972 23.6759 1.5588 23.1248 1.40964C21.1071 0.859375 12.9868 0.859375 12.9868 0.859375C12.9868 0.859375 4.86608 0.876031 2.84844 1.4263C2.29731 1.57546 1.79488 1.8664 1.39117 2.27015C0.987455 2.6739 0.696558 3.17636 0.547441 3.7275C-0.0628477 7.31245 -0.29959 12.7751 0.564199 16.2166C0.713331 16.7678 1.00424 17.2702 1.40794 17.6739C1.81165 18.0777 2.31408 18.3686 2.8652 18.5177C4.88284 19.068 13.0034 19.068 13.0034 19.068C13.0034 19.068 21.1238 19.068 23.1413 18.5177C23.6925 18.3686 24.1949 18.0777 24.5987 17.674C25.0024 17.2702 25.2933 16.7678 25.4424 16.2166C26.0861 12.6266 26.2845 7.16732 25.4258 3.71074Z" fill="#FF0000"/>
<path d="M10.4023 13.8652L17.1388 9.96335L10.4023 6.06152V13.8652Z" fill="white"/>
</g>
<defs>
<clipPath id="clip0_111_2711">
<rect width="26" height="18.2812" fill="white" transform="translate(0 0.859375)"/>
</clipPath>
</defs>
</svg>
