<svg width="39" height="39" viewBox="0 0 39 39" fill="none" xmlns="http://www.w3.org/2000/svg">
<circle cx="19.5" cy="19.5" r="19.5" fill="black"/>
<path d="M25.2849 19.6362L20.2246 24.6965C20.1296 24.7916 20.0007 24.8449 19.8663 24.8449C19.7319 24.8449 19.6031 24.7916 19.5081 24.6965C19.413 24.6015 19.3597 24.4727 19.3597 24.3383C19.3597 24.2039 19.413 24.075 19.5081 23.98L23.7051 19.784L12.7819 19.784C12.6476 19.784 12.5189 19.7307 12.424 19.6358C12.3291 19.5409 12.2758 19.4121 12.2758 19.2779C12.2758 19.1437 12.3291 19.015 12.424 18.9201C12.5189 18.8252 12.6476 18.7719 12.7819 18.7719L23.7051 18.7719L19.5081 14.5759C19.413 14.4809 19.3597 14.352 19.3597 14.2176C19.3597 14.0832 19.413 13.9544 19.5081 13.8593C19.6031 13.7643 19.7319 13.7109 19.8663 13.7109C20.0007 13.7109 20.1296 13.7643 20.2246 13.8593L25.2849 18.9197C25.3321 18.9667 25.3694 19.0225 25.395 19.084C25.4205 19.1455 25.4336 19.2114 25.4336 19.2779C25.4336 19.3445 25.4205 19.4104 25.395 19.4719C25.3694 19.5334 25.3321 19.5892 25.2849 19.6362Z" fill="white"/>
</svg>
