<svg width="48" height="48" viewBox="0 0 48 48" fill="none" xmlns="http://www.w3.org/2000/svg">
<path fill-rule="evenodd" clip-rule="evenodd" d="M41.621 28.165C41.369 27.389 40.932 26.678 40.324 26.035C39.687 25.363 38.85 24.843 37.812 24.467C36.773 24.094 35.439 23.905 33.795 23.905H31.564C31.83 21.159 32.808 18.822 34.5 16.89C36.189 14.964 38.531 13.269 41.525 11.815L39.709 9.00098C35.767 10.68 32.394 13.136 29.592 16.38C26.791 19.627 25.396 22.844 25.396 26.035C25.396 29.463 26.205 32.152 27.836 34.093C29.467 36.034 31.803 37.001 34.84 37.001C36.767 37.001 38.441 36.358 39.865 35.073C41.287 33.79 42 32.287 42 30.573C42 29.746 41.875 28.941 41.621 28.165ZM21.225 28.165C20.971 27.389 20.535 26.678 19.926 26.035C19.291 25.363 18.453 24.843 17.414 24.467C16.377 24.094 15.043 23.905 13.398 23.905H11.166C11.433 21.159 12.41 18.822 14.101 16.89C15.791 14.964 18.135 13.269 21.127 11.815L19.312 9.00098C15.369 10.68 11.998 13.136 9.19501 16.38C6.39401 19.627 5 22.844 5 26.035C5 29.463 5.807 32.152 7.439 34.093C9.068 36.034 11.404 37.001 14.443 37.001C16.369 37.001 18.045 36.358 19.469 35.073C20.891 33.79 21.603 32.287 21.603 30.573C21.603 29.746 21.476 28.941 21.225 28.165Z" fill="black"/>
</svg>
