<svg width="24" height="24" viewBox="0 0 24 24" fill="none" xmlns="http://www.w3.org/2000/svg">
<path d="M18.1875 10.3125C17.0379 10.3125 15.9141 10.6534 14.9583 11.2921C14.0024 11.9308 13.2574 12.8386 12.8175 13.9007C12.3775 14.9627 12.2624 16.1314 12.4867 17.259C12.711 18.3865 13.2646 19.4222 14.0774 20.2351C14.8903 21.048 15.926 21.6015 17.0535 21.8258C18.1811 22.0501 19.3498 21.935 20.4118 21.4951C21.4739 21.0551 22.3817 20.3101 23.0204 19.3543C23.6591 18.3984 24 17.2746 24 16.125C23.9983 14.584 23.3853 13.1065 22.2956 12.0169C21.206 10.9272 19.7285 10.3142 18.1875 10.3125ZM21.2655 14.3273L17.1512 18.4523C17.1164 18.4872 17.075 18.5149 17.0295 18.5338C16.9839 18.5528 16.935 18.5625 16.8857 18.5625C16.8364 18.5625 16.7875 18.5528 16.742 18.5338C16.6964 18.5149 16.655 18.4872 16.6202 18.4523L14.7345 16.5617C14.6995 16.5269 14.6718 16.4855 14.6528 16.4399C14.6339 16.3944 14.6241 16.3455 14.6241 16.2961C14.6241 16.2468 14.6338 16.1979 14.6527 16.1523C14.6716 16.1068 14.6994 16.0654 14.7343 16.0305C14.7692 15.9957 14.8107 15.968 14.8564 15.9493C14.902 15.9305 14.9509 15.9209 15.0002 15.921C15.0496 15.9212 15.0984 15.9311 15.144 15.9502C15.1895 15.9692 15.2308 15.9971 15.2655 16.0322L16.8857 17.6565L20.7345 13.7977C20.7692 13.7627 20.8105 13.7348 20.8561 13.7157C20.9016 13.6967 20.9504 13.6868 20.9998 13.6866C21.0491 13.6865 21.098 13.696 21.1436 13.7148C21.1893 13.7336 21.2308 13.7612 21.2657 13.7961C21.3007 13.8309 21.3284 13.8723 21.3473 13.9179C21.3662 13.9635 21.3759 14.0124 21.3759 14.0617C21.3759 14.1111 21.3661 14.1599 21.3472 14.2055C21.3282 14.2511 21.3005 14.2924 21.2655 14.3273Z" fill="#15417E"/>
<path d="M7.66873 8.59571L8.24679 7.66242L8.23572 7.63678H6.99884C6.86874 7.63717 6.74073 7.60409 6.6271 7.54073C6.51348 7.47737 6.41806 7.38585 6.35001 7.27496L5.44858 5.81909H5.42642L4.5249 7.27496C4.45688 7.38585 4.36147 7.47738 4.24786 7.54074C4.13425 7.60411 4.00624 7.63718 3.87615 7.63678H2.63928L2.6282 7.66242L3.20627 8.59571C3.28191 8.71695 3.32203 8.85698 3.32206 8.99988C3.32209 9.14279 3.28204 9.28284 3.20645 9.40411L2.6282 10.3376L2.63928 10.3632H3.87616C4.00626 10.3628 4.13427 10.3959 4.2479 10.4593C4.36152 10.5226 4.45694 10.6142 4.52499 10.725L5.42642 12.1809H5.44858L6.3501 10.725C6.41812 10.6142 6.51353 10.5226 6.62714 10.4593C6.74075 10.3959 6.86876 10.3628 6.99885 10.3632H8.23573L8.2468 10.3376L7.66874 9.4043C7.5931 9.28306 7.55298 9.14303 7.55295 9.00012C7.55291 8.85722 7.59297 8.71717 7.66855 8.59589L7.66873 8.59571Z" fill="#15417E"/>
<path d="M10.875 12.75C10.8753 12.6506 10.9149 12.5554 10.9852 12.4852C11.0554 12.4149 11.1506 12.3753 11.25 12.375H12.8044C13.0917 11.9634 13.4251 11.5859 13.7981 11.25H11.25C11.1505 11.25 11.0552 11.2105 10.9848 11.1402C10.9145 11.0698 10.875 10.9745 10.875 10.875C10.875 10.7755 10.9145 10.6802 10.9848 10.6098C11.0552 10.5395 11.1505 10.5 11.25 10.5H14.8088C15.7969 9.9059 16.9242 9.58286 18.077 9.56343C19.2298 9.54401 20.3674 9.8289 21.375 10.3894V3.1875C21.3748 2.8892 21.2562 2.60319 21.0452 2.39227C20.8343 2.18134 20.5483 2.06274 20.25 2.0625H1.125C0.826704 2.06274 0.540693 2.18134 0.329766 2.39227C0.118839 2.60319 0.000236367 2.8892 0 3.1875V14.8125C0.000236367 15.1108 0.118839 15.3968 0.329766 15.6077C0.540693 15.8187 0.826704 15.9373 1.125 15.9375H11.6269C11.6545 14.9576 11.9019 13.9965 12.3506 13.125H11.25C11.1506 13.1247 11.0554 13.0851 10.9852 13.0148C10.9149 12.9446 10.8753 12.8494 10.875 12.75ZM11.25 4.875H19.125C19.2245 4.875 19.3198 4.91451 19.3902 4.98484C19.4605 5.05516 19.5 5.15054 19.5 5.25C19.5 5.34946 19.4605 5.44484 19.3902 5.51517C19.3198 5.58549 19.2245 5.625 19.125 5.625H11.25C11.1505 5.625 11.0552 5.58549 10.9848 5.51517C10.9145 5.44484 10.875 5.34946 10.875 5.25C10.875 5.15054 10.9145 5.05516 10.9848 4.98484C11.0552 4.91451 11.1505 4.875 11.25 4.875ZM11.25 6.75H19.125C19.2245 6.75 19.3198 6.78951 19.3902 6.85984C19.4605 6.93016 19.5 7.02554 19.5 7.125C19.5 7.22446 19.4605 7.31984 19.3902 7.39017C19.3198 7.46049 19.2245 7.5 19.125 7.5H11.25C11.1505 7.5 11.0552 7.46049 10.9848 7.39017C10.9145 7.31984 10.875 7.22446 10.875 7.125C10.875 7.02554 10.9145 6.93016 10.9848 6.85984C11.0552 6.78951 11.1505 6.75 11.25 6.75ZM11.25 8.625H17.25C17.3495 8.625 17.4448 8.66451 17.5152 8.73484C17.5855 8.80516 17.625 8.90054 17.625 9C17.625 9.09946 17.5855 9.19484 17.5152 9.26517C17.4448 9.33549 17.3495 9.375 17.25 9.375H11.25C11.1505 9.375 11.0552 9.33549 10.9848 9.26517C10.9145 9.19484 10.875 9.09946 10.875 9C10.875 8.90054 10.9145 8.80516 10.9848 8.73484C11.0552 8.66451 11.1505 8.625 11.25 8.625ZM8.88375 9.94313C8.95599 10.0589 8.99593 10.1919 8.99944 10.3284C9.00295 10.4648 8.9699 10.5997 8.90372 10.7191C8.83754 10.8384 8.74063 10.9379 8.62304 11.0072C8.50546 11.0765 8.37148 11.1131 8.235 11.1131H6.99938L6.08625 12.5756C6.01794 12.6863 5.92247 12.7776 5.80892 12.8409C5.69538 12.9042 5.56752 12.9375 5.4375 12.9375C5.30748 12.9375 5.17962 12.9042 5.06608 12.8409C4.95253 12.7776 4.85706 12.6863 4.78875 12.5756L3.88687 11.1206L2.64 11.1131C2.50352 11.1131 2.36954 11.0765 2.25196 11.0072C2.13437 10.9379 2.03746 10.8384 1.97128 10.7191C1.9051 10.5997 1.87205 10.4648 1.87556 10.3284C1.87907 10.1919 1.91901 10.0589 1.99125 9.94313L2.56875 9.00938C2.57058 9.00659 2.57156 9.00333 2.57156 9C2.57156 8.99667 2.57058 8.99341 2.56875 8.99063L1.99125 8.05688C1.91902 7.94108 1.87907 7.80806 1.87556 7.67163C1.87205 7.53519 1.9051 7.4003 1.97129 7.28094C2.03747 7.16158 2.13438 7.0621 2.25196 6.99281C2.36954 6.92352 2.50352 6.88694 2.64 6.88688H3.87563L4.78875 5.42438C4.85706 5.31375 4.95253 5.22243 5.06608 5.15909C5.17962 5.09576 5.30748 5.06251 5.4375 5.06251C5.56752 5.06251 5.69538 5.09576 5.80892 5.15909C5.92247 5.22243 6.01794 5.31375 6.08625 5.42438L6.98812 6.87937L8.235 6.88688C8.37148 6.88694 8.50546 6.92352 8.62304 6.99281C8.74062 7.0621 8.83753 7.16158 8.90371 7.28094C8.9699 7.4003 9.00295 7.53519 8.99944 7.67163C8.99593 7.80806 8.95598 7.94108 8.88375 8.05688L8.30625 8.99063C8.30442 8.99341 8.30344 8.99667 8.30344 9C8.30344 9.00333 8.30442 9.00659 8.30625 9.00938L8.88375 9.94313Z" fill="#15417E"/>
</svg>
