<svg width="24" height="24" viewBox="0 0 24 24" fill="none" xmlns="http://www.w3.org/2000/svg">
<path d="M23.3375 4.81701C23.2376 4.61157 23.0852 4.43611 22.8959 4.30831C22.7065 4.18051 22.4868 4.10489 22.2588 4.08906L21.133 3.98564L23.114 1.98689C23.24 1.85774 23.3099 1.68402 23.3084 1.50358C23.3069 1.32313 23.2342 1.15058 23.1061 1.02349C22.978 0.896403 22.8049 0.825081 22.6245 0.825057C22.444 0.825033 22.2709 0.896309 22.1427 1.02336L20.1511 3.0328L20.0447 1.87499C20.0289 1.6472 19.9534 1.4276 19.8257 1.23828C19.6981 1.04897 19.5228 0.896632 19.3175 0.7966C19.0875 0.69045 18.8303 0.657707 18.581 0.70282C18.3317 0.747933 18.1023 0.868714 17.924 1.04875L16.4482 2.52494C16.377 2.59609 16.3224 2.68202 16.2882 2.77664C16.254 2.87126 16.241 2.97224 16.2502 3.07244L16.5073 5.86818C16.5294 6.10766 16.4987 6.34907 16.4174 6.57542C16.3362 6.80178 16.2063 7.00759 16.037 7.17839L10.8828 12.3773C10.8192 12.4414 10.7689 12.5173 10.7347 12.6007C10.7005 12.6842 10.6831 12.7736 10.6835 12.8638C10.6838 12.954 10.702 13.0432 10.7369 13.1264C10.7717 13.2096 10.8226 13.2851 10.8867 13.3486C10.9499 13.4116 11.0251 13.4614 11.1078 13.495C11.1905 13.5286 11.2791 13.5454 11.3684 13.5444C11.4585 13.5447 11.5477 13.5272 11.6311 13.493C11.7144 13.4587 11.7902 13.4083 11.854 13.3447L17.0381 8.11585C17.2091 7.9434 17.4161 7.8109 17.6443 7.72783C17.8725 7.64477 18.1163 7.61321 18.3581 7.6354L21.0616 7.88387C21.0827 7.88579 21.1037 7.88676 21.1243 7.88676C21.2143 7.88677 21.3034 7.86904 21.3866 7.83459C21.4697 7.80013 21.5453 7.74962 21.6089 7.68595L23.0853 6.20999C23.2653 6.03183 23.3861 5.80254 23.4312 5.55331C23.4764 5.30408 23.4437 5.04699 23.3375 4.81701ZM20.8671 6.48951L17.9159 6.21835L17.6444 3.2671L18.6992 2.21204L18.9184 4.59584C18.933 4.75525 19.003 4.90452 19.1162 5.01774C19.2294 5.13095 19.3786 5.20095 19.538 5.2156L21.9215 5.43479L20.8671 6.48951Z" fill="#15417E"/>
<path d="M12.7034 9.20928C11.867 8.90161 10.9505 8.88935 10.1062 9.17454C9.26185 9.45974 8.5405 10.0252 8.06196 10.777C7.58342 11.5288 7.37649 12.4218 7.47556 13.3074C7.57462 14.1931 7.97372 15.0182 8.60654 15.6457C9.23936 16.2732 10.0678 16.6654 10.9543 16.757C11.8408 16.8486 12.7319 16.6341 13.4797 16.1493C14.2274 15.6644 14.7868 14.9383 15.0649 14.0916C15.3429 13.2449 15.3229 12.3285 15.0082 11.4947L12.5169 14.0076C12.2129 14.3113 11.8009 14.4821 11.3712 14.4825C10.9415 14.4828 10.5292 14.3127 10.2247 14.0095C9.92019 13.7063 9.74838 13.2947 9.74693 12.865C9.74547 12.4353 9.9145 12.0226 10.2169 11.7173L12.7034 9.20928Z" fill="#15417E"/>
<path d="M20.976 8.81738L18.2724 8.56894C18.2508 8.56691 18.2291 8.56594 18.2075 8.56594C18.0184 8.56647 17.8373 8.642 17.7039 8.77594L17.1192 9.36563C17.9772 10.7748 18.2898 12.4493 17.9979 14.0731C17.7061 15.6969 16.83 17.1578 15.535 18.18C14.24 19.2022 12.6157 19.7152 10.9685 19.622C9.3213 19.5288 7.76516 18.836 6.59371 17.6742C5.42226 16.5125 4.71652 14.9622 4.60965 13.3158C4.50278 11.6694 5.00217 10.0409 6.0136 8.73743C7.02502 7.43399 8.47854 6.54579 10.0999 6.24045C11.7212 5.93511 13.3982 6.23373 14.8145 7.07996L15.3712 6.51833C15.4442 6.44482 15.5002 6.35619 15.5352 6.2587C15.5702 6.1612 15.5833 6.05721 15.5737 5.95406L15.3168 3.15829C15.3142 3.13001 15.3194 3.10253 15.3182 3.07433C13.0591 2.16345 10.5544 2.06255 8.22931 2.78875C5.90425 3.51494 3.90219 5.02348 2.56309 7.05821C1.22399 9.09293 0.630399 11.5284 0.883106 13.9511C1.13581 16.3738 2.21924 18.6343 3.94943 20.3489C5.67961 22.0635 7.94989 23.1264 10.3748 23.3571C12.7997 23.5879 15.2297 22.9722 17.2522 21.6147C19.2747 20.2573 20.765 18.2416 21.4701 15.9101C22.1752 13.5785 22.0516 11.0748 21.1203 8.82401C21.0729 8.82386 21.0248 8.82184 20.976 8.81738Z" fill="#15417E"/>
</svg>
