<svg width="128" height="128" viewBox="0 0 128 128" fill="none" xmlns="http://www.w3.org/2000/svg">
<g opacity="0.5">
<path d="M120 4C120 6.20914 121.791 8 124 8C126.209 8 128 6.20914 128 4C128 1.79086 126.209 0 124 0C121.791 0 120 1.79086 120 4Z" fill="#FAE8BA"/>
<path d="M108 4C108 6.20914 109.791 8 112 8C114.209 8 116 6.20914 116 4C116 1.79086 114.209 0 112 0C109.791 0 108 1.79086 108 4Z" fill="#FAE8BA"/>
<path d="M96 4C96 6.20914 97.7909 8 100 8C102.209 8 104 6.20914 104 4C104 1.79086 102.209 0 100 0C97.7909 0 96 1.79086 96 4Z" fill="#FAE8BA"/>
<path d="M84 4C84 6.20914 85.7909 8 88 8C90.2091 8 92 6.20914 92 4C92 1.79086 90.2091 0 88 0C85.7909 0 84 1.79086 84 4Z" fill="#FAE8BA"/>
<path d="M72 4C72 6.20914 73.7909 8 76 8C78.2091 8 80 6.20914 80 4C80 1.79086 78.2091 0 76 0C73.7909 0 72 1.79086 72 4Z" fill="#FAE8BA"/>
<path d="M60 4C60 6.20914 61.7909 8 64 8C66.2091 8 68 6.20914 68 4C68 1.79086 66.2091 0 64 0C61.7909 0 60 1.79086 60 4Z" fill="#FAE8BA"/>
<path d="M48 4C48 6.20914 49.7909 8 52 8C54.2091 8 56 6.20914 56 4C56 1.79086 54.2091 0 52 0C49.7909 0 48 1.79086 48 4Z" fill="#FAE8BA"/>
<path d="M36 4C36 6.20914 37.7909 8 40 8C42.2091 8 44 6.20914 44 4C44 1.79086 42.2091 0 40 0C37.7909 0 36 1.79086 36 4Z" fill="#FAE8BA"/>
<path d="M24 4C24 6.20914 25.7909 8 28 8C30.2091 8 32 6.20914 32 4C32 1.79086 30.2091 0 28 0C25.7909 0 24 1.79086 24 4Z" fill="#FAE8BA"/>
<path d="M12 4C12 6.20914 13.7909 8 16 8C18.2091 8 20 6.20914 20 4C20 1.79086 18.2091 0 16 0C13.7909 0 12 1.79086 12 4Z" fill="#FAE8BA"/>
<path d="M0 4C0 6.20914 1.79086 8 4 8C6.20914 8 8 6.20914 8 4C8 1.79086 6.20914 0 4 0C1.79086 0 0 1.79086 0 4Z" fill="#FAE8BA"/>
<path d="M108 16C108 18.2091 109.791 20 112 20C114.209 20 116 18.2091 116 16C116 13.7909 114.209 12 112 12C109.791 12 108 13.7909 108 16Z" fill="#FAE8BA"/>
<path d="M96 16C96 18.2091 97.7909 20 100 20C102.209 20 104 18.2091 104 16C104 13.7909 102.209 12 100 12C97.7909 12 96 13.7909 96 16Z" fill="#FAE8BA"/>
<path d="M84 16C84 18.2091 85.7909 20 88 20C90.2091 20 92 18.2091 92 16C92 13.7909 90.2091 12 88 12C85.7909 12 84 13.7909 84 16Z" fill="#FAE8BA"/>
<path d="M72 16C72 18.2091 73.7909 20 76 20C78.2091 20 80 18.2091 80 16C80 13.7909 78.2091 12 76 12C73.7909 12 72 13.7909 72 16Z" fill="#FAE8BA"/>
<path d="M60 16C60 18.2091 61.7909 20 64 20C66.2091 20 68 18.2091 68 16C68 13.7909 66.2091 12 64 12C61.7909 12 60 13.7909 60 16Z" fill="#FAE8BA"/>
<path d="M48 16C48 18.2091 49.7909 20 52 20C54.2091 20 56 18.2091 56 16C56 13.7909 54.2091 12 52 12C49.7909 12 48 13.7909 48 16Z" fill="#FAE8BA"/>
<path d="M36 16C36 18.2091 37.7909 20 40 20C42.2091 20 44 18.2091 44 16C44 13.7909 42.2091 12 40 12C37.7909 12 36 13.7909 36 16Z" fill="#FAE8BA"/>
<path d="M24 16C24 18.2091 25.7909 20 28 20C30.2091 20 32 18.2091 32 16C32 13.7909 30.2091 12 28 12C25.7909 12 24 13.7909 24 16Z" fill="#FAE8BA"/>
<path d="M12 16C12 18.2091 13.7909 20 16 20C18.2091 20 20 18.2091 20 16C20 13.7909 18.2091 12 16 12C13.7909 12 12 13.7909 12 16Z" fill="#FAE8BA"/>
<path d="M0 16C0 18.2091 1.79086 20 4 20C6.20914 20 8 18.2091 8 16C8 13.7909 6.20914 12 4 12C1.79086 12 0 13.7909 0 16Z" fill="#FAE8BA"/>
<path d="M96 28C96 30.2091 97.7909 32 100 32C102.209 32 104 30.2091 104 28C104 25.7909 102.209 24 100 24C97.7909 24 96 25.7909 96 28Z" fill="#FAE8BA"/>
<path d="M84 28C84 30.2091 85.7909 32 88 32C90.2091 32 92 30.2091 92 28C92 25.7909 90.2091 24 88 24C85.7909 24 84 25.7909 84 28Z" fill="#FAE8BA"/>
<path d="M72 28C72 30.2091 73.7909 32 76 32C78.2091 32 80 30.2091 80 28C80 25.7909 78.2091 24 76 24C73.7909 24 72 25.7909 72 28Z" fill="#FAE8BA"/>
<path d="M60 28C60 30.2091 61.7909 32 64 32C66.2091 32 68 30.2091 68 28C68 25.7909 66.2091 24 64 24C61.7909 24 60 25.7909 60 28Z" fill="#FAE8BA"/>
<path d="M48 28C48 30.2091 49.7909 32 52 32C54.2091 32 56 30.2091 56 28C56 25.7909 54.2091 24 52 24C49.7909 24 48 25.7909 48 28Z" fill="#FAE8BA"/>
<path d="M36 28C36 30.2091 37.7909 32 40 32C42.2091 32 44 30.2091 44 28C44 25.7909 42.2091 24 40 24C37.7909 24 36 25.7909 36 28Z" fill="#FAE8BA"/>
<path d="M24 28C24 30.2091 25.7909 32 28 32C30.2091 32 32 30.2091 32 28C32 25.7909 30.2091 24 28 24C25.7909 24 24 25.7909 24 28Z" fill="#FAE8BA"/>
<path d="M12 28C12 30.2091 13.7909 32 16 32C18.2091 32 20 30.2091 20 28C20 25.7909 18.2091 24 16 24C13.7909 24 12 25.7909 12 28Z" fill="#FAE8BA"/>
<path d="M0 28C0 30.2091 1.79086 32 4 32C6.20914 32 8 30.2091 8 28C8 25.7909 6.20914 24 4 24C1.79086 24 0 25.7909 0 28Z" fill="#FAE8BA"/>
<path d="M84 40C84 42.2091 85.7909 44 88 44C90.2091 44 92 42.2091 92 40C92 37.7909 90.2091 36 88 36C85.7909 36 84 37.7909 84 40Z" fill="#FAE8BA"/>
<path d="M72 40C72 42.2091 73.7909 44 76 44C78.2091 44 80 42.2091 80 40C80 37.7909 78.2091 36 76 36C73.7909 36 72 37.7909 72 40Z" fill="#FAE8BA"/>
<path d="M60 40C60 42.2091 61.7909 44 64 44C66.2091 44 68 42.2091 68 40C68 37.7909 66.2091 36 64 36C61.7909 36 60 37.7909 60 40Z" fill="#FAE8BA"/>
<path d="M48 40C48 42.2091 49.7909 44 52 44C54.2091 44 56 42.2091 56 40C56 37.7909 54.2091 36 52 36C49.7909 36 48 37.7909 48 40Z" fill="#FAE8BA"/>
<path d="M36 40C36 42.2091 37.7909 44 40 44C42.2091 44 44 42.2091 44 40C44 37.7909 42.2091 36 40 36C37.7909 36 36 37.7909 36 40Z" fill="#FAE8BA"/>
<path d="M24 40C24 42.2091 25.7909 44 28 44C30.2091 44 32 42.2091 32 40C32 37.7909 30.2091 36 28 36C25.7909 36 24 37.7909 24 40Z" fill="#FAE8BA"/>
<path d="M12 40C12 42.2091 13.7909 44 16 44C18.2091 44 20 42.2091 20 40C20 37.7909 18.2091 36 16 36C13.7909 36 12 37.7909 12 40Z" fill="#FAE8BA"/>
<path d="M0 40C0 42.2091 1.79086 44 4 44C6.20914 44 8 42.2091 8 40C8 37.7909 6.20914 36 4 36C1.79086 36 0 37.7909 0 40Z" fill="#FAE8BA"/>
<path d="M72 52C72 54.2091 73.7909 56 76 56C78.2091 56 80 54.2091 80 52C80 49.7909 78.2091 48 76 48C73.7909 48 72 49.7909 72 52Z" fill="#FAE8BA"/>
<path d="M60 52C60 54.2091 61.7909 56 64 56C66.2091 56 68 54.2091 68 52C68 49.7909 66.2091 48 64 48C61.7909 48 60 49.7909 60 52Z" fill="#FAE8BA"/>
<path d="M48 52C48 54.2091 49.7909 56 52 56C54.2091 56 56 54.2091 56 52C56 49.7909 54.2091 48 52 48C49.7909 48 48 49.7909 48 52Z" fill="#FAE8BA"/>
<path d="M36 52C36 54.2091 37.7909 56 40 56C42.2091 56 44 54.2091 44 52C44 49.7909 42.2091 48 40 48C37.7909 48 36 49.7909 36 52Z" fill="#FAE8BA"/>
<path d="M24 52C24 54.2091 25.7909 56 28 56C30.2091 56 32 54.2091 32 52C32 49.7909 30.2091 48 28 48C25.7909 48 24 49.7909 24 52Z" fill="#FAE8BA"/>
<path d="M12 52C12 54.2091 13.7909 56 16 56C18.2091 56 20 54.2091 20 52C20 49.7909 18.2091 48 16 48C13.7909 48 12 49.7909 12 52Z" fill="#FAE8BA"/>
<path d="M0 52C0 54.2091 1.79086 56 4 56C6.20914 56 8 54.2091 8 52C8 49.7909 6.20914 48 4 48C1.79086 48 0 49.7909 0 52Z" fill="#FAE8BA"/>
<path d="M60 64C60 66.2091 61.7909 68 64 68C66.2091 68 68 66.2091 68 64C68 61.7909 66.2091 60 64 60C61.7909 60 60 61.7909 60 64Z" fill="#FAE8BA"/>
<path d="M48 64C48 66.2091 49.7909 68 52 68C54.2091 68 56 66.2091 56 64C56 61.7909 54.2091 60 52 60C49.7909 60 48 61.7909 48 64Z" fill="#FAE8BA"/>
<path d="M36 64C36 66.2091 37.7909 68 40 68C42.2091 68 44 66.2091 44 64C44 61.7909 42.2091 60 40 60C37.7909 60 36 61.7909 36 64Z" fill="#FAE8BA"/>
<path d="M24 64C24 66.2091 25.7909 68 28 68C30.2091 68 32 66.2091 32 64C32 61.7909 30.2091 60 28 60C25.7909 60 24 61.7909 24 64Z" fill="#FAE8BA"/>
<path d="M12 64C12 66.2091 13.7909 68 16 68C18.2091 68 20 66.2091 20 64C20 61.7909 18.2091 60 16 60C13.7909 60 12 61.7909 12 64Z" fill="#FAE8BA"/>
<path d="M0 64C0 66.2091 1.79086 68 4 68C6.20914 68 8 66.2091 8 64C8 61.7909 6.20914 60 4 60C1.79086 60 0 61.7909 0 64Z" fill="#FAE8BA"/>
<path d="M48 76C48 78.2091 49.7909 80 52 80C54.2091 80 56 78.2091 56 76C56 73.7909 54.2091 72 52 72C49.7909 72 48 73.7909 48 76Z" fill="#FAE8BA"/>
<path d="M36 76C36 78.2091 37.7909 80 40 80C42.2091 80 44 78.2091 44 76C44 73.7909 42.2091 72 40 72C37.7909 72 36 73.7909 36 76Z" fill="#FAE8BA"/>
<path d="M24 76C24 78.2091 25.7909 80 28 80C30.2091 80 32 78.2091 32 76C32 73.7909 30.2091 72 28 72C25.7909 72 24 73.7909 24 76Z" fill="#FAE8BA"/>
<path d="M12 76C12 78.2091 13.7909 80 16 80C18.2091 80 20 78.2091 20 76C20 73.7909 18.2091 72 16 72C13.7909 72 12 73.7909 12 76Z" fill="#FAE8BA"/>
<path d="M0 76C0 78.2091 1.79086 80 4 80C6.20914 80 8 78.2091 8 76C8 73.7909 6.20914 72 4 72C1.79086 72 0 73.7909 0 76Z" fill="#FAE8BA"/>
<path d="M36 88C36 90.2091 37.7909 92 40 92C42.2091 92 44 90.2091 44 88C44 85.7909 42.2091 84 40 84C37.7909 84 36 85.7909 36 88Z" fill="#FAE8BA"/>
<path d="M24 88C24 90.2091 25.7909 92 28 92C30.2091 92 32 90.2091 32 88C32 85.7909 30.2091 84 28 84C25.7909 84 24 85.7909 24 88Z" fill="#FAE8BA"/>
<path d="M12 88C12 90.2091 13.7909 92 16 92C18.2091 92 20 90.2091 20 88C20 85.7909 18.2091 84 16 84C13.7909 84 12 85.7909 12 88Z" fill="#FAE8BA"/>
<path d="M0 88C0 90.2091 1.79086 92 4 92C6.20914 92 8 90.2091 8 88C8 85.7909 6.20914 84 4 84C1.79086 84 0 85.7909 0 88Z" fill="#FAE8BA"/>
<path d="M24 100C24 102.209 25.7909 104 28 104C30.2091 104 32 102.209 32 100C32 97.7909 30.2091 96 28 96C25.7909 96 24 97.7909 24 100Z" fill="#FAE8BA"/>
<path d="M12 100C12 102.209 13.7909 104 16 104C18.2091 104 20 102.209 20 100C20 97.7909 18.2091 96 16 96C13.7909 96 12 97.7909 12 100Z" fill="#FAE8BA"/>
<path d="M0 100C0 102.209 1.79086 104 4 104C6.20914 104 8 102.209 8 100C8 97.7909 6.20914 96 4 96C1.79086 96 0 97.7909 0 100Z" fill="#FAE8BA"/>
<path d="M12 112C12 114.209 13.7909 116 16 116C18.2091 116 20 114.209 20 112C20 109.791 18.2091 108 16 108C13.7909 108 12 109.791 12 112Z" fill="#FAE8BA"/>
<path d="M0 112C0 114.209 1.79086 116 4 116C6.20914 116 8 114.209 8 112C8 109.791 6.20914 108 4 108C1.79086 108 0 109.791 0 112Z" fill="#FAE8BA"/>
<path d="M0 124C0 126.209 1.79086 128 4 128C6.20914 128 8 126.209 8 124C8 121.791 6.20914 120 4 120C1.79086 120 0 121.791 0 124Z" fill="#FAE8BA"/>
</g>
</svg>
