<svg width="22" height="22" viewBox="0 0 22 22" fill="none" xmlns="http://www.w3.org/2000/svg">
<path d="M9.56177 2.11111V9.73889H1.82524C1.17462 9.73889 0.672815 10.3184 0.672815 11C0.672815 11.6816 1.17462 12.2611 1.82524 12.2611H9.56177V19.8889C9.56177 20.5705 10.0636 21.15 10.7142 21.15H10.9316C11.5822 21.15 12.084 20.5705 12.084 19.8889V12.2611H19.8204C20.471 12.2611 20.9728 11.6816 20.9728 11C20.9728 10.3184 20.471 9.73889 19.8204 9.73889H12.084V2.11111C12.084 1.42952 11.5822 0.85 10.9316 0.85H10.7142C10.0636 0.85 9.56177 1.42952 9.56177 2.11111Z" fill="#404040" stroke="#E5E5E5" stroke-width="0.3" stroke-linecap="round"/>
</svg>
