<svg width="256" height="193" viewBox="0 0 256 193" fill="none" xmlns="http://www.w3.org/2000/svg">
<mask id="mask0_103_1795" style="mask-type:alpha" maskUnits="userSpaceOnUse" x="0" y="1" width="40" height="41">
<circle cx="19.9481" cy="21.2775" r="19.9481" transform="rotate(-90 19.9481 21.2775)" fill="#243E5E"/>
</mask>
<g mask="url(#mask0_103_1795)">
<rect x="-1.99414" y="21.9434" width="35.2416" height="44.5507" transform="rotate(-90 -1.99414 21.9434)" fill="#243E5E"/>
</g>
<mask id="mask1_103_1795" style="mask-type:alpha" maskUnits="userSpaceOnUse" x="0" y="3" width="40" height="39">
<ellipse cx="19.9504" cy="22.6079" rx="18.6182" ry="19.9481" transform="rotate(90 19.9504 22.6079)" fill="#36688F"/>
</mask>
<g mask="url(#mask1_103_1795)">
<rect x="41.8926" y="21.9878" width="32.8922" height="44.5507" transform="rotate(90 41.8926 21.9878)" fill="#36688F"/>
</g>
<mask id="mask2_103_1795" style="mask-type:alpha" maskUnits="userSpaceOnUse" x="214" y="0" width="41" height="40">
<circle cx="234.724" cy="19.9479" r="19.9481" transform="rotate(-180 234.724 19.9479)" fill="#243E5E"/>
</mask>
<g mask="url(#mask2_103_1795)">
<rect x="235.389" y="41.8906" width="35.2416" height="44.5507" transform="rotate(-180 235.389 41.8906)" fill="#DCAF54"/>
</g>
<mask id="mask3_103_1795" style="mask-type:alpha" maskUnits="userSpaceOnUse" x="217" y="0" width="38" height="40">
<ellipse cx="236.054" cy="19.9481" rx="18.6182" ry="19.9481" fill="#36688F"/>
</mask>
<g mask="url(#mask3_103_1795)">
<rect x="235.434" y="-1.99463" width="32.8922" height="44.5507" fill="#D3854C"/>
</g>
<mask id="mask4_103_1795" style="mask-type:alpha" maskUnits="userSpaceOnUse" x="86" y="0" width="41" height="40">
<circle cx="106.393" cy="19.9479" r="19.9481" transform="rotate(-90 106.393 19.9479)" fill="#D3854C"/>
</mask>
<g mask="url(#mask4_103_1795)">
<rect x="84.4512" y="20.6128" width="35.2416" height="44.5507" transform="rotate(-90 84.4512 20.6128)" fill="#D3854C"/>
</g>
<mask id="mask5_103_1795" style="mask-type:alpha" maskUnits="userSpaceOnUse" x="86" y="1" width="41" height="41">
<circle cx="106.392" cy="21.2782" r="19.9481" transform="rotate(90 106.392 21.2782)" fill="#D3854C"/>
</mask>
<g mask="url(#mask5_103_1795)">
<rect x="128.334" y="20.6133" width="35.2416" height="44.5507" transform="rotate(90 128.334 20.6133)" fill="#D3854C"/>
</g>
<mask id="mask6_103_1795" style="mask-type:alpha" maskUnits="userSpaceOnUse" x="172" y="0" width="41" height="40">
<circle cx="192.833" cy="19.9489" r="19.9481" transform="rotate(-90 192.833 19.9489)" fill="#36688F"/>
</mask>
<g mask="url(#mask6_103_1795)">
<rect x="170.891" y="20.6138" width="35.2416" height="44.5507" transform="rotate(-90 170.891 20.6138)" fill="#36688F"/>
</g>
<mask id="mask7_103_1795" style="mask-type:alpha" maskUnits="userSpaceOnUse" x="172" y="1" width="41" height="41">
<circle cx="192.835" cy="21.2782" r="19.9481" transform="rotate(90 192.835 21.2782)" fill="#36688F"/>
</mask>
<g mask="url(#mask7_103_1795)">
<rect x="214.779" y="20.6133" width="35.2416" height="44.5507" transform="rotate(90 214.779 20.6133)" fill="#36688F"/>
</g>
<mask id="mask8_103_1795" style="mask-type:alpha" maskUnits="userSpaceOnUse" x="23" y="1" width="41" height="41">
<circle cx="43.2215" cy="21.2796" r="19.9481" fill="#DCAF54"/>
</mask>
<g mask="url(#mask8_103_1795)">
<rect x="42.5566" y="-0.663574" width="35.2416" height="44.5507" fill="#DCAF54"/>
</g>
<mask id="mask9_103_1795" style="mask-type:alpha" maskUnits="userSpaceOnUse" x="63" y="1" width="41" height="41">
<circle cx="19.9481" cy="19.9481" r="19.9481" transform="matrix(-1 0 0 1 103.066 1.33105)" fill="#D3854C"/>
</mask>
<g mask="url(#mask9_103_1795)">
<rect width="35.2416" height="44.5507" transform="matrix(-1 0 0 1 83.7832 -0.664062)" fill="#D3854C"/>
</g>
<mask id="mask10_103_1795" style="mask-type:alpha" maskUnits="userSpaceOnUse" x="109" y="1" width="41" height="41">
<circle cx="129.665" cy="21.2777" r="19.9481" fill="#DCAF54"/>
</mask>
<g mask="url(#mask10_103_1795)">
<rect x="129" y="-0.665039" width="35.2416" height="44.5507" fill="#36688F"/>
</g>
<mask id="mask11_103_1795" style="mask-type:alpha" maskUnits="userSpaceOnUse" x="149" y="1" width="41" height="41">
<circle cx="19.9481" cy="19.9481" r="19.9481" transform="matrix(-1 0 0 1 189.51 1.32959)" fill="#D3854C"/>
</mask>
<g mask="url(#mask11_103_1795)">
<rect width="35.2416" height="44.5507" transform="matrix(-1 0 0 1 170.227 -0.665039)" fill="#243E5E"/>
</g>
<mask id="mask12_103_1795" style="mask-type:alpha" maskUnits="userSpaceOnUse" x="0" y="102" width="40" height="41">
<circle cx="19.9481" cy="122.349" r="19.9481" transform="rotate(-90 19.9481 122.349)" fill="#243E5E"/>
</mask>
<g mask="url(#mask12_103_1795)">
<rect x="-1.99414" y="123.013" width="35.2416" height="44.5507" transform="rotate(-90 -1.99414 123.013)" fill="#243E5E"/>
</g>
<mask id="mask13_103_1795" style="mask-type:alpha" maskUnits="userSpaceOnUse" x="0" y="105" width="40" height="38">
<ellipse cx="19.9504" cy="123.679" rx="18.6182" ry="19.9481" transform="rotate(90 19.9504 123.679)" fill="#36688F"/>
</mask>
<g mask="url(#mask13_103_1795)">
<rect x="41.8926" y="123.058" width="32.8922" height="44.5507" transform="rotate(90 41.8926 123.058)" fill="#36688F"/>
</g>
<mask id="mask14_103_1795" style="mask-type:alpha" maskUnits="userSpaceOnUse" x="214" y="101" width="41" height="40">
<circle cx="234.722" cy="121.02" r="19.9481" transform="rotate(-180 234.722 121.02)" fill="#243E5E"/>
</mask>
<g mask="url(#mask14_103_1795)">
<rect x="235.387" y="142.963" width="35.2416" height="44.5507" transform="rotate(-180 235.387 142.963)" fill="#DCAF54"/>
</g>
<mask id="mask15_103_1795" style="mask-type:alpha" maskUnits="userSpaceOnUse" x="217" y="101" width="38" height="40">
<ellipse cx="236.05" cy="121.019" rx="18.6182" ry="19.9481" fill="#36688F"/>
</mask>
<g mask="url(#mask15_103_1795)">
<rect x="235.43" y="99.0762" width="32.8922" height="44.5507" fill="#D3854C"/>
</g>
<mask id="mask16_103_1795" style="mask-type:alpha" maskUnits="userSpaceOnUse" x="86" y="101" width="41" height="40">
<circle cx="106.393" cy="121.019" r="19.9481" transform="rotate(-90 106.393 121.019)" fill="#D3854C"/>
</mask>
<g mask="url(#mask16_103_1795)">
<rect x="84.4512" y="121.684" width="35.2416" height="44.5507" transform="rotate(-90 84.4512 121.684)" fill="#D3854C"/>
</g>
<mask id="mask17_103_1795" style="mask-type:alpha" maskUnits="userSpaceOnUse" x="86" y="102" width="41" height="41">
<circle cx="106.392" cy="122.349" r="19.9481" transform="rotate(90 106.392 122.349)" fill="#D3854C"/>
</mask>
<g mask="url(#mask17_103_1795)">
<rect x="128.334" y="121.685" width="35.2416" height="44.5507" transform="rotate(90 128.334 121.685)" fill="#D3854C"/>
</g>
<mask id="mask18_103_1795" style="mask-type:alpha" maskUnits="userSpaceOnUse" x="172" y="101" width="41" height="40">
<circle cx="192.833" cy="121.019" r="19.9481" transform="rotate(-90 192.833 121.019)" fill="#36688F"/>
</mask>
<g mask="url(#mask18_103_1795)">
<rect x="170.891" y="121.684" width="35.2416" height="44.5507" transform="rotate(-90 170.891 121.684)" fill="#36688F"/>
</g>
<mask id="mask19_103_1795" style="mask-type:alpha" maskUnits="userSpaceOnUse" x="172" y="102" width="41" height="41">
<circle cx="192.835" cy="122.347" r="19.9481" transform="rotate(90 192.835 122.347)" fill="#36688F"/>
</mask>
<g mask="url(#mask19_103_1795)">
<rect x="214.779" y="121.683" width="35.2416" height="44.5507" transform="rotate(90 214.779 121.683)" fill="#36688F"/>
</g>
<mask id="mask20_103_1795" style="mask-type:alpha" maskUnits="userSpaceOnUse" x="23" y="102" width="41" height="41">
<circle cx="43.2215" cy="122.349" r="19.9481" fill="#DCAF54"/>
</mask>
<g mask="url(#mask20_103_1795)">
<rect x="42.5566" y="100.406" width="35.2416" height="44.5507" fill="#DCAF54"/>
</g>
<mask id="mask21_103_1795" style="mask-type:alpha" maskUnits="userSpaceOnUse" x="63" y="102" width="41" height="41">
<circle cx="19.9481" cy="19.9481" r="19.9481" transform="matrix(-1 0 0 1 103.066 102.401)" fill="#D3854C"/>
</mask>
<g mask="url(#mask21_103_1795)">
<rect width="35.2416" height="44.5507" transform="matrix(-1 0 0 1 83.7832 100.406)" fill="#D3854C"/>
</g>
<mask id="mask22_103_1795" style="mask-type:alpha" maskUnits="userSpaceOnUse" x="109" y="102" width="41" height="41">
<circle cx="129.665" cy="122.348" r="19.9481" fill="#DCAF54"/>
</mask>
<g mask="url(#mask22_103_1795)">
<rect x="129" y="100.405" width="35.2416" height="44.5507" fill="#36688F"/>
</g>
<mask id="mask23_103_1795" style="mask-type:alpha" maskUnits="userSpaceOnUse" x="149" y="102" width="41" height="41">
<circle cx="19.9481" cy="19.9481" r="19.9481" transform="matrix(-1 0 0 1 189.51 102.4)" fill="#D3854C"/>
</mask>
<g mask="url(#mask23_103_1795)">
<rect width="35.2416" height="44.5507" transform="matrix(-1 0 0 1 170.227 100.406)" fill="#243E5E"/>
</g>
<mask id="mask24_103_1795" style="mask-type:alpha" maskUnits="userSpaceOnUse" x="216" y="50" width="40" height="41">
<circle cx="236.052" cy="70.4832" r="19.9481" transform="rotate(90 236.052 70.4832)" fill="#243E5E"/>
</mask>
<g mask="url(#mask24_103_1795)">
<rect x="257.994" y="69.8184" width="35.2416" height="44.5507" transform="rotate(90 257.994 69.8184)" fill="#243E5E"/>
</g>
<mask id="mask25_103_1795" style="mask-type:alpha" maskUnits="userSpaceOnUse" x="216" y="50" width="40" height="38">
<ellipse cx="236.05" cy="69.1533" rx="18.6182" ry="19.9481" transform="rotate(-90 236.05 69.1533)" fill="#36688F"/>
</mask>
<g mask="url(#mask25_103_1795)">
<rect x="214.105" y="69.7734" width="32.8922" height="44.5507" transform="rotate(-90 214.105 69.7734)" fill="#36688F"/>
</g>
<mask id="mask26_103_1795" style="mask-type:alpha" maskUnits="userSpaceOnUse" x="1" y="51" width="41" height="41">
<circle cx="21.2801" cy="71.8133" r="19.9481" fill="#243E5E"/>
</mask>
<g mask="url(#mask26_103_1795)">
<rect x="20.6152" y="49.8701" width="35.2416" height="44.5507" fill="#DCAF54"/>
</g>
<mask id="mask27_103_1795" style="mask-type:alpha" maskUnits="userSpaceOnUse" x="1" y="51" width="38" height="41">
<ellipse cx="19.9482" cy="71.8136" rx="18.6182" ry="19.9481" transform="rotate(-180 19.9482 71.8136)" fill="#36688F"/>
</mask>
<g mask="url(#mask27_103_1795)">
<rect x="20.5684" y="93.7568" width="32.8922" height="44.5507" transform="rotate(-180 20.5684 93.7568)" fill="#D3854C"/>
</g>
<mask id="mask28_103_1795" style="mask-type:alpha" maskUnits="userSpaceOnUse" x="129" y="51" width="41" height="41">
<circle cx="149.612" cy="71.8143" r="19.9481" transform="rotate(90 149.612 71.8143)" fill="#D3854C"/>
</mask>
<g mask="url(#mask28_103_1795)">
<rect x="171.557" y="71.1484" width="35.2416" height="44.5507" transform="rotate(90 171.557 71.1484)" fill="#D3854C"/>
</g>
<mask id="mask29_103_1795" style="mask-type:alpha" maskUnits="userSpaceOnUse" x="129" y="50" width="41" height="41">
<circle cx="149.61" cy="70.4836" r="19.9481" transform="rotate(-90 149.61 70.4836)" fill="#D3854C"/>
</mask>
<g mask="url(#mask29_103_1795)">
<rect x="127.666" y="71.1484" width="35.2416" height="44.5507" transform="rotate(-90 127.666 71.1484)" fill="#D3854C"/>
</g>
<mask id="mask30_103_1795" style="mask-type:alpha" maskUnits="userSpaceOnUse" x="43" y="51" width="41" height="41">
<circle cx="63.1691" cy="71.8138" r="19.9481" transform="rotate(90 63.1691 71.8138)" fill="#36688F"/>
</mask>
<g mask="url(#mask30_103_1795)">
<rect x="85.1133" y="71.1489" width="35.2416" height="44.5507" transform="rotate(90 85.1133 71.1489)" fill="#36688F"/>
</g>
<mask id="mask31_103_1795" style="mask-type:alpha" maskUnits="userSpaceOnUse" x="43" y="50" width="41" height="41">
<circle cx="63.1688" cy="70.4836" r="19.9481" transform="rotate(-90 63.1688 70.4836)" fill="#36688F"/>
</mask>
<g mask="url(#mask31_103_1795)">
<rect x="41.2246" y="71.1484" width="35.2416" height="44.5507" transform="rotate(-90 41.2246 71.1484)" fill="#36688F"/>
</g>
<mask id="mask32_103_1795" style="mask-type:alpha" maskUnits="userSpaceOnUse" x="192" y="50" width="41" height="41">
<circle cx="212.778" cy="70.4845" r="19.9481" transform="rotate(-180 212.778 70.4845)" fill="#DCAF54"/>
</mask>
<g mask="url(#mask32_103_1795)">
<rect x="213.443" y="92.4277" width="35.2416" height="44.5507" transform="rotate(-180 213.443 92.4277)" fill="#DCAF54"/>
</g>
<mask id="mask33_103_1795" style="mask-type:alpha" maskUnits="userSpaceOnUse" x="152" y="50" width="41" height="41">
<circle cx="19.9481" cy="19.9481" r="19.9481" transform="matrix(1 0 0 -1 152.934 90.4326)" fill="#D3854C"/>
</mask>
<g mask="url(#mask33_103_1795)">
<rect width="35.2416" height="44.5507" transform="matrix(1 0 0 -1 172.217 92.4277)" fill="#D3854C"/>
</g>
<mask id="mask34_103_1795" style="mask-type:alpha" maskUnits="userSpaceOnUse" x="106" y="50" width="41" height="41">
<circle cx="126.339" cy="70.4845" r="19.9481" transform="rotate(-180 126.339 70.4845)" fill="#DCAF54"/>
</mask>
<g mask="url(#mask34_103_1795)">
<rect x="127.004" y="92.4277" width="35.2416" height="44.5507" transform="rotate(-180 127.004 92.4277)" fill="#36688F"/>
</g>
<mask id="mask35_103_1795" style="mask-type:alpha" maskUnits="userSpaceOnUse" x="66" y="50" width="41" height="41">
<circle cx="19.9481" cy="19.9481" r="19.9481" transform="matrix(1 0 0 -1 66.4922 90.4326)" fill="#D3854C"/>
</mask>
<g mask="url(#mask35_103_1795)">
<rect width="35.2416" height="44.5507" transform="matrix(1 0 0 -1 85.7754 92.4272)" fill="#243E5E"/>
</g>
<mask id="mask36_103_1795" style="mask-type:alpha" maskUnits="userSpaceOnUse" x="216" y="151" width="40" height="41">
<circle cx="236.052" cy="171.554" r="19.9481" transform="rotate(90 236.052 171.554)" fill="#243E5E"/>
</mask>
<g mask="url(#mask36_103_1795)">
<rect x="257.994" y="170.888" width="35.2416" height="44.5507" transform="rotate(90 257.994 170.888)" fill="#243E5E"/>
</g>
<mask id="mask37_103_1795" style="mask-type:alpha" maskUnits="userSpaceOnUse" x="216" y="151" width="40" height="38">
<ellipse cx="236.05" cy="170.223" rx="18.6182" ry="19.9481" transform="rotate(-90 236.05 170.223)" fill="#36688F"/>
</mask>
<g mask="url(#mask37_103_1795)">
<rect x="214.105" y="170.844" width="32.8922" height="44.5507" transform="rotate(-90 214.105 170.844)" fill="#36688F"/>
</g>
<mask id="mask38_103_1795" style="mask-type:alpha" maskUnits="userSpaceOnUse" x="1" y="152" width="41" height="41">
<circle cx="21.2782" cy="172.884" r="19.9481" fill="#243E5E"/>
</mask>
<g mask="url(#mask38_103_1795)">
<rect x="20.6133" y="150.941" width="35.2416" height="44.5507" fill="#DCAF54"/>
</g>
<mask id="mask39_103_1795" style="mask-type:alpha" maskUnits="userSpaceOnUse" x="1" y="152" width="38" height="41">
<ellipse cx="19.9502" cy="172.884" rx="18.6182" ry="19.9481" transform="rotate(-180 19.9502 172.884)" fill="#36688F"/>
</mask>
<g mask="url(#mask39_103_1795)">
<rect x="20.5703" y="194.827" width="32.8922" height="44.5507" transform="rotate(-180 20.5703 194.827)" fill="#D3854C"/>
</g>
<mask id="mask40_103_1795" style="mask-type:alpha" maskUnits="userSpaceOnUse" x="129" y="152" width="41" height="41">
<circle cx="149.612" cy="172.884" r="19.9481" transform="rotate(90 149.612 172.884)" fill="#D3854C"/>
</mask>
<g mask="url(#mask40_103_1795)">
<rect x="171.557" y="172.218" width="35.2416" height="44.5507" transform="rotate(90 171.557 172.218)" fill="#D3854C"/>
</g>
<mask id="mask41_103_1795" style="mask-type:alpha" maskUnits="userSpaceOnUse" x="129" y="151" width="41" height="41">
<circle cx="149.61" cy="171.554" r="19.9481" transform="rotate(-90 149.61 171.554)" fill="#D3854C"/>
</mask>
<g mask="url(#mask41_103_1795)">
<rect x="127.666" y="172.219" width="35.2416" height="44.5507" transform="rotate(-90 127.666 172.219)" fill="#D3854C"/>
</g>
<mask id="mask42_103_1795" style="mask-type:alpha" maskUnits="userSpaceOnUse" x="43" y="152" width="41" height="41">
<circle cx="63.1691" cy="172.883" r="19.9481" transform="rotate(90 63.1691 172.883)" fill="#36688F"/>
</mask>
<g mask="url(#mask42_103_1795)">
<rect x="85.1133" y="172.218" width="35.2416" height="44.5507" transform="rotate(90 85.1133 172.218)" fill="#36688F"/>
</g>
<mask id="mask43_103_1795" style="mask-type:alpha" maskUnits="userSpaceOnUse" x="43" y="151" width="41" height="41">
<circle cx="63.1688" cy="171.554" r="19.9481" transform="rotate(-90 63.1688 171.554)" fill="#36688F"/>
</mask>
<g mask="url(#mask43_103_1795)">
<rect x="41.2246" y="172.218" width="35.2416" height="44.5507" transform="rotate(-90 41.2246 172.218)" fill="#36688F"/>
</g>
<mask id="mask44_103_1795" style="mask-type:alpha" maskUnits="userSpaceOnUse" x="192" y="151" width="41" height="41">
<circle cx="212.778" cy="171.554" r="19.9481" transform="rotate(-180 212.778 171.554)" fill="#DCAF54"/>
</mask>
<g mask="url(#mask44_103_1795)">
<rect x="213.443" y="193.497" width="35.2416" height="44.5507" transform="rotate(-180 213.443 193.497)" fill="#DCAF54"/>
</g>
<mask id="mask45_103_1795" style="mask-type:alpha" maskUnits="userSpaceOnUse" x="152" y="151" width="41" height="41">
<circle cx="19.9481" cy="19.9481" r="19.9481" transform="matrix(1 0 0 -1 152.934 191.502)" fill="#D3854C"/>
</mask>
<g mask="url(#mask45_103_1795)">
<rect width="35.2416" height="44.5507" transform="matrix(1 0 0 -1 172.217 193.497)" fill="#D3854C"/>
</g>
<mask id="mask46_103_1795" style="mask-type:alpha" maskUnits="userSpaceOnUse" x="106" y="151" width="41" height="41">
<circle cx="126.339" cy="171.554" r="19.9481" transform="rotate(-180 126.339 171.554)" fill="#DCAF54"/>
</mask>
<g mask="url(#mask46_103_1795)">
<rect x="127.004" y="193.497" width="35.2416" height="44.5507" transform="rotate(-180 127.004 193.497)" fill="#36688F"/>
</g>
<mask id="mask47_103_1795" style="mask-type:alpha" maskUnits="userSpaceOnUse" x="66" y="151" width="41" height="41">
<circle cx="19.9481" cy="19.9481" r="19.9481" transform="matrix(1 0 0 -1 66.4922 191.502)" fill="#D3854C"/>
</mask>
<g mask="url(#mask47_103_1795)">
<rect width="35.2416" height="44.5507" transform="matrix(1 0 0 -1 85.7754 193.497)" fill="#243E5E"/>
</g>
</svg>
