<svg width="10" height="11" viewBox="0 0 10 11" fill="none" xmlns="http://www.w3.org/2000/svg">
<path d="M3.01515 2.67839C2.91475 2.68635 2.81377 2.67402 2.71824 2.64211C2.62271 2.6102 2.53458 2.55938 2.45912 2.49268C2.38366 2.42598 2.3224 2.34475 2.27901 2.25386C2.23561 2.16297 2.21097 2.06427 2.20655 1.96365C2.20213 1.86303 2.21802 1.76255 2.25328 1.6682C2.28854 1.57385 2.34243 1.48758 2.41176 1.41451C2.48108 1.34145 2.56441 1.2831 2.65678 1.24294C2.74914 1.20278 2.84865 1.18163 2.94937 1.18076L8.60077 0.932511C8.79934 0.923912 8.9932 0.99448 9.13977 1.12872C9.28634 1.26295 9.37363 1.44987 9.38248 1.64843L9.63073 7.29983C9.6387 7.40024 9.62636 7.50121 9.59445 7.59675C9.56255 7.69228 9.51173 7.7804 9.44502 7.85587C9.37832 7.93133 9.2971 7.99259 9.20621 8.03598C9.11532 8.07937 9.01662 8.10401 8.91599 8.10843C8.81537 8.11286 8.71489 8.09696 8.62054 8.06171C8.5262 8.02645 8.43992 7.97255 8.36686 7.90323C8.29379 7.8339 8.23544 7.75057 8.19528 7.65821C8.15512 7.56584 8.13398 7.46633 8.13311 7.36562L7.9643 3.52266L1.41973 10.6686C1.28538 10.8153 1.09827 10.9026 0.899549 10.9114C0.700828 10.9201 0.50678 10.8495 0.36009 10.7152C0.213401 10.5808 0.126087 10.3937 0.117358 10.195C0.108629 9.99627 0.179199 9.80222 0.313543 9.65553L6.85811 2.50957L3.01515 2.67839Z" fill="#012B65"/>
</svg>
