<svg width="69" height="70" viewBox="0 0 69 70" fill="none" xmlns="http://www.w3.org/2000/svg">
<rect width="69" height="70" rx="34.5" fill="white"/>
<path d="M35.0007 36.1668C33.8956 36.1668 32.8358 35.7278 32.0544 34.9464C31.273 34.165 30.834 33.1052 30.834 32.0002C30.834 30.8951 31.273 29.8353 32.0544 29.0539C32.8358 28.2725 33.8956 27.8335 35.0007 27.8335C36.1057 27.8335 37.1655 28.2725 37.9469 29.0539C38.7283 29.8353 39.1673 30.8951 39.1673 32.0002C39.1673 32.5473 39.0595 33.0892 38.8502 33.5947C38.6408 34.1002 38.3338 34.5595 37.9469 34.9464C37.56 35.3334 37.1007 35.6403 36.5952 35.8497C36.0896 36.0591 35.5478 36.1668 35.0007 36.1668ZM35.0007 20.3335C31.9065 20.3335 28.939 21.5627 26.7511 23.7506C24.5631 25.9385 23.334 28.906 23.334 32.0002C23.334 40.7502 35.0007 53.6668 35.0007 53.6668C35.0007 53.6668 46.6673 40.7502 46.6673 32.0002C46.6673 28.906 45.4382 25.9385 43.2502 23.7506C41.0623 21.5627 38.0948 20.3335 35.0007 20.3335Z" fill="black"/>
</svg>
