<svg width="24" height="25" viewBox="0 0 24 25" fill="none" xmlns="http://www.w3.org/2000/svg">
<path d="M13.4707 9.03015C13.397 8.96149 13.3379 8.87869 13.2969 8.78669C13.2559 8.69469 13.2338 8.59538 13.2321 8.49468C13.2303 8.39397 13.2488 8.29394 13.2865 8.20056C13.3243 8.10717 13.3804 8.02233 13.4516 7.95111C13.5228 7.8799 13.6077 7.82375 13.7011 7.78603C13.7945 7.74831 13.8945 7.72979 13.9952 7.73156C14.0959 7.73334 14.1952 7.75538 14.2872 7.79637C14.3792 7.83736 14.462 7.89647 14.5307 7.97015L18.5307 11.9702C18.6711 12.1108 18.75 12.3014 18.75 12.5002C18.75 12.6989 18.6711 12.8895 18.5307 13.0302L14.5307 17.0302C14.462 17.1038 14.3792 17.1629 14.2872 17.2039C14.1952 17.2449 14.0959 17.267 13.9952 17.2687C13.8945 17.2705 13.7944 17.252 13.7011 17.2143C13.6077 17.1766 13.5228 17.1204 13.4516 17.0492C13.3804 16.978 13.3243 16.8931 13.2865 16.7998C13.2488 16.7064 13.2303 16.6063 13.2321 16.5056C13.2338 16.4049 13.2559 16.3056 13.2969 16.2136C13.3379 16.1216 13.397 16.0388 13.4707 15.9702L16.1907 13.2502L6.50066 13.2502C6.30175 13.2502 6.11098 13.1711 5.97033 13.0305C5.82968 12.8898 5.75066 12.6991 5.75066 12.5002C5.75066 12.3012 5.82968 12.1105 5.97033 11.9698C6.11098 11.8292 6.30175 11.7502 6.50066 11.7502L16.1907 11.7502L13.4707 9.03015Z" fill="#012B65"/>
</svg>
