<svg width="37" height="38" viewBox="0 0 37 38" fill="none" xmlns="http://www.w3.org/2000/svg">
<rect width="37" height="38" rx="18.5" fill="#FFC738"/>
<path d="M16.268 15.2159C16.1509 15.2252 16.0331 15.2108 15.9216 15.1736C15.8102 15.1363 15.7073 15.0771 15.6193 14.9992C15.5313 14.9214 15.4598 14.8267 15.4092 14.7206C15.3585 14.6146 15.3298 14.4994 15.3246 14.382C15.3195 14.2646 15.338 14.1474 15.3792 14.0373C15.4203 13.9273 15.4832 13.8266 15.564 13.7414C15.6449 13.6561 15.7421 13.5881 15.8499 13.5412C15.9577 13.4943 16.0738 13.4697 16.1913 13.4687L22.7846 13.179C23.0162 13.169 23.2424 13.2513 23.4134 13.4079C23.5844 13.5645 23.6862 13.7826 23.6965 14.0143L23.9862 20.6076C23.9955 20.7247 23.9811 20.8425 23.9439 20.954C23.9066 21.0654 23.8473 21.1682 23.7695 21.2563C23.6917 21.3443 23.5969 21.4158 23.4909 21.4664C23.3849 21.517 23.2697 21.5458 23.1523 21.5509C23.0349 21.5561 22.9177 21.5376 22.8076 21.4964C22.6976 21.4553 22.5969 21.3924 22.5117 21.3115C22.4264 21.2307 22.3583 21.1334 22.3115 21.0257C22.2646 20.9179 22.24 20.8018 22.239 20.6843L22.042 16.2009L14.4067 24.5378C14.2499 24.709 14.0316 24.8108 13.7998 24.821C13.568 24.8312 13.3416 24.7489 13.1704 24.5921C12.9993 24.4354 12.8974 24.2171 12.8872 23.9853C12.8771 23.7534 12.9594 23.527 13.1161 23.3559L20.7515 15.0189L16.268 15.2159Z" fill="#012B65"/>
</svg>
