<svg width="21" height="21" viewBox="0 0 21 21" fill="none" xmlns="http://www.w3.org/2000/svg">
<path d="M15.532 9.45841C15.1737 9.45841 14.8903 9.16675 14.8903 8.81675C14.8903 8.50841 14.582 7.86675 14.0653 7.30841C13.557 6.76675 12.9987 6.45008 12.532 6.45008C12.1737 6.45008 11.8903 6.15841 11.8903 5.80841C11.8903 5.45841 12.182 5.16675 12.532 5.16675C13.3653 5.16675 14.2403 5.61675 15.007 6.42508C15.7237 7.18341 16.182 8.12508 16.182 8.80841C16.182 9.16675 15.8903 9.45841 15.532 9.45841Z" fill="#262626"/>
<path d="M18.5403 9.45841C18.182 9.45841 17.8986 9.16675 17.8986 8.81675C17.8986 5.85841 15.4903 3.45841 12.5403 3.45841C12.182 3.45841 11.8986 3.16675 11.8986 2.81675C11.8986 2.46675 12.182 2.16675 12.532 2.16675C16.1986 2.16675 19.182 5.15008 19.182 8.81675C19.182 9.16675 18.8903 9.45841 18.5403 9.45841Z" fill="#262626"/>
<path d="M10.057 12.9584L8.51532 14.5001C8.19032 14.8251 7.67365 14.8251 7.34032 14.5084C7.24865 14.4167 7.15699 14.3334 7.06532 14.2417C6.20699 13.3751 5.43199 12.4667 4.74032 11.5167C4.05699 10.5667 3.50699 9.61675 3.10699 8.67508C2.71532 7.72508 2.51532 6.81675 2.51532 5.95008C2.51532 5.38341 2.61532 4.84175 2.81532 4.34175C3.01532 3.83341 3.33199 3.36675 3.77365 2.95008C4.30699 2.42508 4.89032 2.16675 5.50699 2.16675C5.74032 2.16675 5.97365 2.21675 6.18199 2.31675C6.39865 2.41675 6.59032 2.56675 6.74032 2.78341L8.67365 5.50841C8.82365 5.71675 8.93199 5.90841 9.00699 6.09175C9.08199 6.26675 9.12365 6.44175 9.12365 6.60008C9.12365 6.80008 9.06532 7.00008 8.94865 7.19175C8.84032 7.38341 8.68199 7.58341 8.48199 7.78341L7.84865 8.44175C7.75699 8.53341 7.71532 8.64175 7.71532 8.77508C7.71532 8.84175 7.72365 8.90008 7.74032 8.96675C7.76532 9.03341 7.79032 9.08341 7.80699 9.13341C7.95699 9.40841 8.21532 9.76675 8.58199 10.2001C8.95699 10.6334 9.35699 11.0751 9.79032 11.5167C9.87365 11.6001 9.96532 11.6834 10.0487 11.7667C10.382 12.0917 10.3903 12.6251 10.057 12.9584Z" fill="#262626"/>
<path d="M19.157 15.775C19.157 16.0083 19.1153 16.25 19.032 16.4833C19.007 16.55 18.982 16.6166 18.9486 16.6833C18.807 16.9833 18.6236 17.2666 18.382 17.5333C17.9736 17.9833 17.5236 18.3083 17.0153 18.5166C17.007 18.5166 16.9986 18.525 16.9903 18.525C16.4986 18.725 15.9653 18.8333 15.3903 18.8333C14.5403 18.8333 13.632 18.6333 12.6736 18.225C11.7153 17.8166 10.757 17.2666 9.80697 16.575C9.48197 16.3333 9.15697 16.0916 8.84863 15.8333L11.5736 13.1083C11.807 13.2833 12.0153 13.4166 12.1903 13.5083C12.232 13.525 12.282 13.55 12.3403 13.575C12.407 13.6 12.4736 13.6083 12.5486 13.6083C12.6903 13.6083 12.7986 13.5583 12.8903 13.4666L13.5236 12.8416C13.732 12.6333 13.932 12.475 14.1236 12.375C14.3153 12.2583 14.507 12.2 14.7153 12.2C14.8736 12.2 15.0403 12.2333 15.2236 12.3083C15.407 12.3833 15.5986 12.4916 15.807 12.6333L18.5653 14.5916C18.782 14.7416 18.932 14.9166 19.0236 15.125C19.107 15.3333 19.157 15.5416 19.157 15.775Z" fill="#262626"/>
</svg>
