<svg width="16" height="18" viewBox="0 0 16 18" fill="none" xmlns="http://www.w3.org/2000/svg">
<path d="M15.032 6.04158C14.157 2.19159 10.7986 0.458252 7.84865 0.458252C7.84865 0.458252 7.84865 0.458252 7.84032 0.458252C4.89865 0.458252 1.53198 2.18325 0.656985 6.03325C-0.318015 10.3333 2.31532 13.9749 4.69865 16.2666C5.58198 17.1166 6.71532 17.5416 7.84865 17.5416C8.98198 17.5416 10.1153 17.1166 10.9903 16.2666C13.3737 13.9749 16.007 10.3416 15.032 6.04158ZM7.84865 10.2166C6.39865 10.2166 5.22365 9.04158 5.22365 7.59159C5.22365 6.14158 6.39865 4.96658 7.84865 4.96658C9.29865 4.96658 10.4736 6.14158 10.4736 7.59159C10.4736 9.04158 9.29865 10.2166 7.84865 10.2166Z" fill="#262626"/>
</svg>
