<svg width="35" height="35" viewBox="0 0 35 35" fill="none" xmlns="http://www.w3.org/2000/svg">
<g clip-path="url(#clip0_257_6544)">
<path d="M31.7188 0.820439H3.28125C2.63602 0.813872 2.01454 1.06354 1.55318 1.51465C1.09181 1.96576 0.828245 2.58148 0.820312 3.22669V31.779C0.82968 32.4233 1.09388 33.0376 1.55509 33.4875C2.01629 33.9375 2.63696 34.1864 3.28125 34.1798H31.7188C32.364 34.1849 32.9851 33.9344 33.4462 33.483C33.9073 33.0316 34.171 32.4161 34.1797 31.7708V3.21849C34.1682 2.57517 33.9032 1.96239 33.4424 1.51335C32.9816 1.0643 32.3622 0.815292 31.7188 0.820439Z" fill="#0076B2"/>
<path d="M5.76094 13.3232H10.7129V29.2564H5.76094V13.3232ZM8.23828 5.39355C8.80625 5.39355 9.36145 5.56201 9.83366 5.87761C10.3059 6.19321 10.6739 6.64178 10.8911 7.16656C11.1083 7.69134 11.165 8.26876 11.054 8.82578C10.943 9.38279 10.6693 9.89436 10.2675 10.2958C9.86568 10.6972 9.35384 10.9704 8.79673 11.0809C8.23961 11.1914 7.66224 11.1341 7.13767 10.9164C6.61309 10.6987 6.16488 10.3303 5.84973 9.85775C5.53457 9.38524 5.36665 8.82988 5.36719 8.26191C5.36791 7.50093 5.67072 6.77135 6.20908 6.23351C6.74743 5.69567 7.47729 5.39355 8.23828 5.39355ZM13.8191 13.3232H18.566V15.5107H18.6316C19.2934 14.2584 20.9066 12.9377 23.3156 12.9377C28.3305 12.9268 29.2602 16.2271 29.2602 20.5064V29.2564H24.3082V21.5045C24.3082 19.6588 24.2754 17.2826 21.7352 17.2826C19.1949 17.2826 18.7629 19.2951 18.7629 21.3842V29.2564H13.8191V13.3232Z" fill="white"/>
</g>
<defs>
<clipPath id="clip0_257_6544">
<rect width="35" height="35" fill="white"/>
</clipPath>
</defs>
</svg>
