<svg width="35" height="35" viewBox="0 0 35 35" fill="none" xmlns="http://www.w3.org/2000/svg">
<path d="M26.7969 0H8.20312C3.67266 0 0 3.67266 0 8.20312V26.7969C0 31.3273 3.67266 35 8.20312 35H26.7969C31.3273 35 35 31.3273 35 26.7969V8.20312C35 3.67266 31.3273 0 26.7969 0Z" fill="white"/>
<path d="M26.7969 0H8.20312C3.67266 0 0 3.67266 0 8.20312V26.7969C0 31.3273 3.67266 35 8.20312 35H26.7969C31.3273 35 35 31.3273 35 26.7969V8.20312C35 3.67266 31.3273 0 26.7969 0Z" fill="#1D9BF0"/>
<path d="M27.2852 12.4976C27.3003 12.7146 27.3003 12.9315 27.3003 13.1506C27.3003 19.822 22.2214 27.5163 12.9346 27.5163V27.5122C10.191 27.5161 7.50436 26.7304 5.19531 25.2488C5.59444 25.2967 5.99503 25.3209 6.39707 25.3217C8.67098 25.3235 10.8795 24.5608 12.6677 23.1562C11.6141 23.1362 10.5931 22.7875 9.74741 22.1589C8.9017 21.5303 8.27355 20.6531 7.95074 19.65C8.70717 19.7959 9.487 19.7662 10.2301 19.5631C7.87473 19.0872 6.1801 17.0176 6.1801 14.6141V14.5502C6.88226 14.9413 7.66811 15.158 8.4715 15.1821C6.25311 13.6993 5.56924 10.748 6.90881 8.44046C8.17629 10.0004 9.75778 11.2762 11.5505 12.1849C13.3433 13.0937 15.3072 13.6151 17.3146 13.7153C17.1145 12.8538 17.144 11.9548 17.4003 11.1083C17.6567 10.2617 18.1307 9.49732 18.7752 8.8915C20.8087 6.9799 24.007 7.07792 25.9186 9.11038C27.0493 8.88717 28.1336 8.47266 29.1248 7.8847C28.7479 9.05374 27.9591 10.0461 26.9053 10.677C27.9061 10.559 28.8835 10.2911 29.8047 9.8823C29.1272 10.8971 28.274 11.7826 27.2852 12.4976Z" fill="white"/>
</svg>
