<svg width="21" height="21" viewBox="0 0 21 21" fill="none" xmlns="http://www.w3.org/2000/svg">
<path d="M15.3489 9.45841C14.9906 9.45841 14.7073 9.16675 14.7073 8.81675C14.7073 8.50841 14.3989 7.86675 13.8823 7.30841C13.3739 6.76675 12.8156 6.45008 12.3489 6.45008C11.9906 6.45008 11.7073 6.15841 11.7073 5.80841C11.7073 5.45841 11.9989 5.16675 12.3489 5.16675C13.1823 5.16675 14.0573 5.61675 14.8239 6.42508C15.5406 7.18341 15.9989 8.12508 15.9989 8.80841C15.9989 9.16675 15.7073 9.45841 15.3489 9.45841Z" fill="#262626"/>
<path d="M18.3572 9.45841C17.9989 9.45841 17.7156 9.16675 17.7156 8.81675C17.7156 5.85841 15.3072 3.45841 12.3572 3.45841C11.9989 3.45841 11.7156 3.16675 11.7156 2.81675C11.7156 2.46675 11.9989 2.16675 12.3489 2.16675C16.0156 2.16675 18.9989 5.15008 18.9989 8.81675C18.9989 9.16675 18.7072 9.45841 18.3572 9.45841Z" fill="#262626"/>
<path d="M9.87394 12.9584L8.33227 14.5001C8.00728 14.8251 7.49061 14.8251 7.15728 14.5084C7.06561 14.4167 6.97394 14.3334 6.88228 14.2417C6.02394 13.3751 5.24894 12.4667 4.55728 11.5167C3.87394 10.5667 3.32394 9.61675 2.92394 8.67508C2.53228 7.72508 2.33228 6.81675 2.33228 5.95008C2.33228 5.38341 2.43228 4.84175 2.63228 4.34175C2.83228 3.83341 3.14894 3.36675 3.59061 2.95008C4.12394 2.42508 4.70728 2.16675 5.32394 2.16675C5.55728 2.16675 5.79061 2.21675 5.99894 2.31675C6.21561 2.41675 6.40728 2.56675 6.55728 2.78341L8.49061 5.50841C8.64061 5.71675 8.74894 5.90841 8.82394 6.09175C8.89894 6.26675 8.94061 6.44175 8.94061 6.60008C8.94061 6.80008 8.88228 7.00008 8.76561 7.19175C8.65728 7.38341 8.49894 7.58341 8.29894 7.78341L7.66561 8.44175C7.57394 8.53341 7.53228 8.64175 7.53228 8.77508C7.53228 8.84175 7.54061 8.90008 7.55728 8.96675C7.58228 9.03341 7.60728 9.08341 7.62394 9.13341C7.77394 9.40841 8.03228 9.76675 8.39894 10.2001C8.77394 10.6334 9.17394 11.0751 9.60728 11.5167C9.69061 11.6001 9.78228 11.6834 9.86561 11.7667C10.1989 12.0917 10.2073 12.6251 9.87394 12.9584Z" fill="#262626"/>
<path d="M18.9739 15.775C18.9739 16.0083 18.9322 16.25 18.8489 16.4833C18.8239 16.55 18.7989 16.6166 18.7655 16.6833C18.6239 16.9833 18.4405 17.2666 18.1989 17.5333C17.7905 17.9833 17.3405 18.3083 16.8322 18.5166C16.8239 18.5166 16.8155 18.525 16.8072 18.525C16.3155 18.725 15.7822 18.8333 15.2072 18.8333C14.3572 18.8333 13.4489 18.6333 12.4905 18.225C11.5322 17.8166 10.5739 17.2666 9.62386 16.575C9.29886 16.3333 8.97386 16.0916 8.66553 15.8333L11.3905 13.1083C11.6239 13.2833 11.8322 13.4166 12.0072 13.5083C12.0489 13.525 12.0989 13.55 12.1572 13.575C12.2239 13.6 12.2905 13.6083 12.3655 13.6083C12.5072 13.6083 12.6155 13.5583 12.7072 13.4666L13.3405 12.8416C13.5489 12.6333 13.7489 12.475 13.9405 12.375C14.1322 12.2583 14.3239 12.2 14.5322 12.2C14.6905 12.2 14.8572 12.2333 15.0405 12.3083C15.2239 12.3833 15.4155 12.4916 15.6239 12.6333L18.3822 14.5916C18.5989 14.7416 18.7489 14.9166 18.8405 15.125C18.9239 15.3333 18.9739 15.5416 18.9739 15.775Z" fill="#262626"/>
</svg>
