<svg width="21" height="21" viewBox="0 0 21 21" fill="none" xmlns="http://www.w3.org/2000/svg">
<path d="M17.8489 7.54158C16.9739 3.69159 13.6156 1.95825 10.6656 1.95825C10.6656 1.95825 10.6656 1.95825 10.6573 1.95825C7.71561 1.95825 4.34894 3.68325 3.47394 7.53325C2.49894 11.8333 5.13227 15.4749 7.51561 17.7666C8.39894 18.6166 9.53227 19.0416 10.6656 19.0416C11.7989 19.0416 12.9323 18.6166 13.8073 17.7666C16.1906 15.4749 18.8239 11.8416 17.8489 7.54158ZM10.6656 11.7166C9.21561 11.7166 8.04061 10.5416 8.04061 9.09159C8.04061 7.64158 9.21561 6.46658 10.6656 6.46658C12.1156 6.46658 13.2906 7.64158 13.2906 9.09159C13.2906 10.5416 12.1156 11.7166 10.6656 11.7166Z" fill="#262626"/>
</svg>
