<svg width="25" height="24" viewBox="0 0 25 24" fill="none" xmlns="http://www.w3.org/2000/svg">
<path d="M22.6655 12C22.6655 6.49 18.1755 2 12.6655 2C7.15553 2 2.66553 6.49 2.66553 12C2.66553 14.9 3.91553 17.51 5.89553 19.34C5.89553 19.35 5.89553 19.35 5.88553 19.36C5.98553 19.46 6.10553 19.54 6.20553 19.63C6.26553 19.68 6.31553 19.73 6.37553 19.77C6.55553 19.92 6.75553 20.06 6.94553 20.2C7.01553 20.25 7.07553 20.29 7.14553 20.34C7.33553 20.47 7.53553 20.59 7.74553 20.7C7.81553 20.74 7.89553 20.79 7.96553 20.83C8.16553 20.94 8.37553 21.04 8.59553 21.13C8.67553 21.17 8.75553 21.21 8.83553 21.24C9.05553 21.33 9.27553 21.41 9.49553 21.48C9.57553 21.51 9.65553 21.54 9.73553 21.56C9.97553 21.63 10.2155 21.69 10.4555 21.75C10.5255 21.77 10.5955 21.79 10.6755 21.8C10.9555 21.86 11.2355 21.9 11.5255 21.93C11.5655 21.93 11.6055 21.94 11.6455 21.95C11.9855 21.98 12.3255 22 12.6655 22C13.0055 22 13.3455 21.98 13.6755 21.95C13.7155 21.95 13.7555 21.94 13.7955 21.93C14.0855 21.9 14.3655 21.86 14.6455 21.8C14.7155 21.79 14.7855 21.76 14.8655 21.75C15.1055 21.69 15.3555 21.64 15.5855 21.56C15.6655 21.53 15.7455 21.5 15.8255 21.48C16.0455 21.4 16.2755 21.33 16.4855 21.24C16.5655 21.21 16.6455 21.17 16.7255 21.13C16.9355 21.04 17.1455 20.94 17.3555 20.83C17.4355 20.79 17.5055 20.74 17.5755 20.7C17.7755 20.58 17.9755 20.47 18.1755 20.34C18.2455 20.3 18.3055 20.25 18.3755 20.2C18.5755 20.06 18.7655 19.92 18.9455 19.77C19.0055 19.72 19.0555 19.67 19.1155 19.63C19.2255 19.54 19.3355 19.45 19.4355 19.36C19.4355 19.35 19.4355 19.35 19.4255 19.34C21.4155 17.51 22.6655 14.9 22.6655 12ZM17.6055 16.97C14.8955 15.15 10.4555 15.15 7.72553 16.97C7.28553 17.26 6.92553 17.6 6.62553 17.97C5.10553 16.43 4.16553 14.32 4.16553 12C4.16553 7.31 7.97553 3.5 12.6655 3.5C17.3555 3.5 21.1655 7.31 21.1655 12C21.1655 14.32 20.2255 16.43 18.7055 17.97C18.4155 17.6 18.0455 17.26 17.6055 16.97Z" fill="#171717"/>
<path d="M12.6655 6.92993C10.5955 6.92993 8.91553 8.60993 8.91553 10.6799C8.91553 12.7099 10.5055 14.3599 12.6155 14.4199C12.6455 14.4199 12.6855 14.4199 12.7055 14.4199C12.7255 14.4199 12.7555 14.4199 12.7755 14.4199C12.7855 14.4199 12.7955 14.4199 12.7955 14.4199C14.8155 14.3499 16.4055 12.7099 16.4155 10.6799C16.4155 8.60993 14.7355 6.92993 12.6655 6.92993Z" fill="#171717"/>
</svg>
