<svg width="38" height="28" viewBox="0 0 38 28" fill="none" xmlns="http://www.w3.org/2000/svg">
<path fill-rule="evenodd" clip-rule="evenodd" d="M37.2876 19.165C37.0356 18.389 36.5986 17.678 35.9906 17.035C35.3536 16.363 34.5166 15.843 33.4786 15.467C32.4396 15.094 31.1056 14.905 29.4616 14.905H27.2306C27.4966 12.159 28.4746 9.82198 30.1666 7.88998C31.8556 5.96398 34.1976 4.26898 37.1916 2.81498L35.3756 0.000976562C31.4336 1.67998 28.0606 4.13598 25.2586 7.37998C22.4576 10.627 21.0626 13.844 21.0626 17.035C21.0626 20.463 21.8716 23.152 23.5026 25.093C25.1336 27.034 27.4696 28.001 30.5066 28.001C32.4336 28.001 34.1076 27.358 35.5316 26.073C36.9536 24.79 37.6666 23.287 37.6666 21.573C37.6666 20.746 37.5416 19.941 37.2876 19.165ZM16.8916 19.165C16.6376 18.389 16.2016 17.678 15.5926 17.035C14.9576 16.363 14.1196 15.843 13.0806 15.467C12.0436 15.094 10.7096 14.905 9.06464 14.905H6.83264C7.09964 12.159 8.07664 9.82198 9.76764 7.88998C11.4576 5.96398 13.8016 4.26898 16.7936 2.81498L14.9786 0.000976562C11.0356 1.67998 7.66463 4.13598 4.86163 7.37998C2.06063 10.627 0.666626 13.844 0.666626 17.035C0.666626 20.463 1.47362 23.152 3.10562 25.093C4.73462 27.034 7.07065 28.001 10.1096 28.001C12.0356 28.001 13.7116 27.358 15.1356 26.073C16.5576 24.79 17.2696 23.287 17.2696 21.573C17.2696 20.746 17.1426 19.941 16.8916 19.165Z" fill="black"/>
</svg>
