<svg width="17" height="16" viewBox="0 0 17 16" fill="none" xmlns="http://www.w3.org/2000/svg">
<path d="M8.24006 0.400987C8.46145 0.179866 8.76157 0.0556637 9.07448 0.0556637C9.38738 0.0556637 9.6875 0.179866 9.9089 0.400987L16.6 7.09208C16.8211 7.31348 16.9453 7.61359 16.9453 7.9265C16.9453 8.23941 16.8211 8.53952 16.6 8.76092L9.90889 15.452C9.6851 15.6608 9.38896 15.7746 9.08292 15.7693C8.77687 15.764 8.48484 15.6401 8.2684 15.4237C8.05196 15.2072 7.92804 14.9152 7.92275 14.6092C7.91746 14.3031 8.03123 14.007 8.24006 13.7832L12.916 9.10728L1.2026 9.10728C0.889438 9.10728 0.589103 8.98288 0.367662 8.76144C0.146223 8.54 0.0218197 8.23966 0.0218197 7.9265C0.0218197 7.61334 0.146223 7.313 0.367662 7.09156C0.589103 6.87012 0.889438 6.74572 1.2026 6.74572L12.916 6.74572L8.24006 2.06983C8.01894 1.84843 7.89473 1.54831 7.89473 1.23541C7.89473 0.922498 8.01894 0.622384 8.24006 0.400987Z" fill="black"/>
</svg>
