<svg width="30" height="28" viewBox="0 0 30 28" fill="none" xmlns="http://www.w3.org/2000/svg">
<path d="M19.2874 20.435C13.6562 20.435 9.07478 15.852 9.07324 10.2208C9.07478 8.79335 10.2371 7.63257 11.6615 7.63257C11.8079 7.63257 11.9528 7.6449 12.0916 7.66956C12.3968 7.72043 12.6866 7.82372 12.9533 7.97941C12.9918 8.00254 13.018 8.03954 13.0242 8.0827L13.6192 11.8332C13.6269 11.8764 13.6131 11.9211 13.5838 11.9535C13.2554 12.3173 12.8361 12.5794 12.369 12.7104L12.144 12.7736L12.2288 12.9909C12.9964 14.9456 14.5596 16.5072 16.5158 17.2779L16.7331 17.3643L16.7963 17.1392C16.9274 16.6721 17.1894 16.2528 17.5532 15.9245C17.5794 15.8998 17.6149 15.8875 17.6503 15.8875C17.658 15.8875 17.6658 15.8875 17.675 15.889L21.4256 16.4841C21.4703 16.4918 21.5073 16.5164 21.5304 16.555C21.6845 16.8217 21.7878 17.113 21.8402 17.4182C21.8649 17.5539 21.8757 17.6972 21.8757 17.8468C21.8757 19.2727 20.7149 20.4335 19.2874 20.435Z" fill="#171717"/>
<path d="M29.2738 12.7648C28.9701 9.33336 27.3978 6.15009 24.8465 3.80233C22.2799 1.4407 18.9501 0.139648 15.4678 0.139648C7.8249 0.139648 1.60637 6.35819 1.60637 14.0011C1.60637 16.5662 2.31392 19.0651 3.65351 21.2417L0.666016 27.8549L10.2312 26.8359C11.8946 27.5173 13.655 27.8626 15.4663 27.8626C15.9426 27.8626 16.4313 27.8379 16.9215 27.7871C17.3531 27.7408 17.7894 27.673 18.2179 27.5867C24.6184 26.2933 29.2908 20.6128 29.3278 14.0751V14.0011C29.3278 13.5849 29.3093 13.1687 29.2723 12.7663L29.2738 12.7648ZM10.5997 23.9332L5.30759 24.4974L6.88766 20.9966L6.57164 20.5727C6.54852 20.5418 6.5254 20.511 6.49919 20.4756C5.12723 18.581 4.40269 16.3427 4.40269 14.0027C4.40269 7.90127 9.36643 2.93754 15.4678 2.93754C21.1838 2.93754 26.0289 7.39719 26.496 13.0901C26.5206 13.3953 26.5345 13.7021 26.5345 14.0042C26.5345 14.0905 26.533 14.1753 26.5314 14.2663C26.4143 19.3703 22.8487 23.7051 17.8603 24.8088C17.4795 24.8936 17.0895 24.9583 16.7011 25C16.2972 25.0462 15.8825 25.0693 15.4709 25.0693C14.0049 25.0693 12.5805 24.7857 11.2348 24.2246C11.0853 24.1645 10.9388 24.0997 10.8016 24.0334L10.6012 23.9363L10.5997 23.9332Z" fill="#171717"/>
</svg>
