<svg width="26" height="26" viewBox="0 0 26 26" fill="none" xmlns="http://www.w3.org/2000/svg">
<path d="M1.49286 5.62437C0.913249 5.08638 0.625 4.42044 0.625 3.6281C0.625 2.83575 0.91479 2.14051 1.49286 1.60097C2.07248 1.06298 2.81859 0.793213 3.73272 0.793213C4.64685 0.793213 5.36367 1.06298 5.94175 1.60097C6.52136 2.13897 6.80961 2.81571 6.80961 3.6281C6.80961 4.44048 6.51982 5.08638 5.94175 5.62437C5.36213 6.16237 4.62681 6.43214 3.73272 6.43214C2.83863 6.43214 2.07248 6.16237 1.49286 5.62437ZM6.3225 8.71053V25.2049H1.11057V8.71053H6.3225Z" fill="#171717"/>
<path d="M23.6723 10.3398C24.8084 11.5731 25.3757 13.2657 25.3757 15.4207V24.9135H20.4258V16.0898C20.4258 15.003 20.1437 14.1582 19.5811 13.557C19.0184 12.9558 18.26 12.6537 17.3104 12.6537C16.3608 12.6537 15.6024 12.9543 15.0397 13.557C14.477 14.1582 14.1949 15.003 14.1949 16.0898V24.9135H9.21582V8.66418H14.1949V10.8192C14.699 10.1009 15.3789 9.53362 16.2329 9.11586C17.0869 8.69811 18.0473 8.48999 19.1155 8.48999C21.0178 8.48999 22.5377 9.1066 23.6723 10.3383V10.3398Z" fill="#171717"/>
</svg>
