<svg width="30" height="20" viewBox="0 0 30 20" fill="none" xmlns="http://www.w3.org/2000/svg">
<path d="M28.853 5.44116C28.6798 3.77002 28.3073 1.92265 26.936 0.95181C25.874 0.198946 24.478 0.171114 23.1748 0.17266C20.42 0.17266 17.6636 0.177303 14.9088 0.178849C12.2591 0.181941 9.60934 0.183485 6.95963 0.186577C5.85275 0.186577 4.77679 0.101549 3.74875 0.580785C2.86603 0.992 2.175 1.77424 1.75915 2.64459C1.18252 3.85505 1.06195 5.22628 0.992379 6.56505C0.864067 9.00296 0.877981 11.4471 1.03103 13.8834C1.14388 15.6612 1.42987 17.6261 2.80419 18.7593C4.02238 19.7626 5.74144 19.812 7.32137 19.8136C12.3363 19.8182 17.3529 19.8229 22.3694 19.826C23.0125 19.8275 23.6834 19.8151 24.3389 19.744C25.6282 19.6049 26.8572 19.2354 27.6858 18.28C28.5221 17.3169 28.737 15.9766 28.8638 14.7074C29.173 11.6279 29.1699 8.51909 28.853 5.44116ZM12.0086 14.3163V5.68232L19.4847 9.99853L12.0086 14.3163Z" fill="#171717"/>
</svg>
