<svg width="28" height="23" viewBox="0 0 28 23" fill="none" xmlns="http://www.w3.org/2000/svg">
<path d="M1.33335 10.2499C1.39501 10.219 1.4567 10.1897 1.51682 10.162C2.56198 9.67796 3.62102 9.22476 4.67851 8.77154C4.73554 8.77154 4.8311 8.70526 4.88505 8.68368C4.96675 8.64822 5.04847 8.61431 5.13017 8.57885C5.2874 8.51103 5.44465 8.44474 5.60034 8.37691C5.91482 8.2428 6.22773 8.10868 6.5422 7.97456L8.42441 7.16835C9.67922 6.63189 10.9356 6.09389 12.1904 5.55744C13.4452 5.02099 14.7016 4.48299 15.9564 3.94654C17.2112 3.41008 18.4675 2.87209 19.7223 2.33564C20.9771 1.79919 22.2335 1.26119 23.4883 0.724736C23.7673 0.604496 24.0695 0.425674 24.3685 0.373261C24.6198 0.328557 24.8649 0.242235 25.1177 0.194448C25.5971 0.103497 26.1259 0.0665037 26.5852 0.265362C26.744 0.334731 26.8905 0.431847 27.0122 0.553628C27.5949 1.13016 27.5132 2.07666 27.3899 2.8875C26.5313 8.53877 25.6726 14.1916 24.8125 19.8428C24.6953 20.6182 24.535 21.4692 23.923 21.9594C23.405 22.374 22.6682 22.4203 22.0284 22.2445C21.3887 22.0673 20.8245 21.6958 20.2711 21.3304C17.9758 19.8105 15.6789 18.2905 13.3835 16.7706C12.8378 16.4098 12.2305 15.9381 12.2367 15.283C12.2397 14.8883 12.4756 14.5369 12.7161 14.2239C14.7108 11.6218 17.5888 9.83366 19.73 7.35179C20.0322 7.00186 20.2696 6.36983 19.8549 6.16789C19.6083 6.04765 19.3246 6.21105 19.0995 6.36675C16.2693 8.3322 13.4406 10.2992 10.6103 12.2647C9.68695 12.9059 8.71887 13.5657 7.60588 13.723C6.61005 13.8648 5.60806 13.5873 4.6446 13.3036C3.83683 13.0663 3.03059 12.8227 2.22745 12.5714C1.80044 12.4388 1.35956 12.2955 1.02967 11.9949C0.699783 11.6943 0.5102 11.1887 0.709058 10.7879C0.833922 10.5366 1.07595 10.3778 1.3303 10.2483L1.33335 10.2499Z" fill="#171717"/>
</svg>
