<svg width="19" height="20" viewBox="0 0 19 20" fill="none" xmlns="http://www.w3.org/2000/svg">
<path d="M17.6635 19.5458C15.4991 19.5458 13.3607 19.0742 11.2483 18.1309C9.13588 17.1875 7.21392 15.8498 5.48243 14.1176C3.75094 12.3854 2.41353 10.4635 1.47021 8.35173C0.526897 6.24 0.0548918 4.1016 0.0541992 1.93654C0.0541992 1.62488 0.158089 1.36515 0.365868 1.15737C0.573647 0.949593 0.833371 0.845703 1.14504 0.845703H5.35257C5.59498 0.845703 5.81141 0.928122 6.00188 1.09296C6.19234 1.2578 6.30489 1.45242 6.33952 1.67682L7.0148 5.31296C7.04943 5.58999 7.04077 5.82375 6.98883 6.01421C6.93688 6.20467 6.84165 6.36917 6.70313 6.50769L4.18381 9.05298C4.53011 9.69363 4.94116 10.3125 5.41698 10.9095C5.89279 11.5065 6.41674 12.0824 6.98883 12.6372C7.52559 13.1739 8.08833 13.6719 8.67704 14.1311C9.26574 14.5903 9.88908 15.01 10.547 15.3902L12.9885 12.9488C13.1443 12.793 13.3479 12.6763 13.5993 12.5987C13.8507 12.5212 14.0973 12.4993 14.339 12.5333L17.9232 13.2605C18.1656 13.3298 18.3647 13.4555 18.5206 13.6376C18.6764 13.8198 18.7543 14.0231 18.7543 14.2475V18.455C18.7543 18.7667 18.6504 19.0264 18.4427 19.2342C18.2349 19.4419 17.9752 19.5458 17.6635 19.5458Z" fill="#264E86"/>
</svg>
