<svg width="17" height="18" viewBox="0 0 17 18" fill="none" xmlns="http://www.w3.org/2000/svg">
<path fill-rule="evenodd" clip-rule="evenodd" d="M14.0913 1.09476C14.4354 0.969389 14.8081 0.944836 15.1656 1.02398C15.5231 1.10313 15.8506 1.28269 16.1096 1.54155C16.3686 1.80042 16.5483 2.12783 16.6276 2.48532C16.707 2.8428 16.6826 3.2155 16.5574 3.55961L12.3139 16.2781C12.2107 16.5906 12.029 16.8714 11.7862 17.0937C11.5434 17.3159 11.2476 17.4721 10.9272 17.5473C10.6075 17.625 10.2731 17.6184 9.95672 17.5281C9.64036 17.4378 9.35289 17.2668 9.12244 17.032L6.84518 14.7654L4.45394 16.0026C4.36228 16.0501 4.2598 16.073 4.15663 16.0688C4.05346 16.0646 3.95317 16.0336 3.86565 15.9788C3.77813 15.924 3.70641 15.8473 3.65758 15.7564C3.60875 15.6654 3.5845 15.5632 3.58721 15.46L3.68575 11.6796L12.0503 5.60416C12.1292 5.54686 12.1961 5.47458 12.247 5.39145C12.298 5.30832 12.3321 5.21596 12.3474 5.11966C12.3626 5.02335 12.3588 4.92498 12.336 4.83017C12.3133 4.73535 12.2721 4.64594 12.2148 4.56704C12.1575 4.48815 12.0852 4.42131 12.0021 4.37035C11.919 4.31939 11.8266 4.2853 11.7303 4.27003C11.634 4.25476 11.5356 4.25861 11.4408 4.28135C11.346 4.3041 11.2566 4.3453 11.1777 4.4026L2.67179 10.5814L0.617745 8.52731C0.396375 8.30588 0.233169 8.03317 0.142647 7.73343C0.052125 7.43369 0.0370939 7.11623 0.0988909 6.80928C0.161025 6.4737 0.311328 6.16069 0.534376 5.90239C0.757423 5.64408 1.04518 5.44976 1.36812 5.33939H1.37169L14.0901 1.09357L14.0913 1.09476Z" fill="#264E86"/>
</svg>
