<svg width="17" height="18" viewBox="0 0 17 18" fill="none" xmlns="http://www.w3.org/2000/svg">
<path d="M8.40394 0.889404C9.50607 0.889404 10.5631 1.32722 11.3424 2.10655C12.1217 2.88587 12.5595 3.94286 12.5595 5.04499C12.5595 6.14712 12.1217 7.20411 11.3424 7.98343C10.5631 8.76275 9.50607 9.20057 8.40394 9.20057C7.30181 9.20057 6.24482 8.76275 5.4655 7.98343C4.68618 7.20411 4.24836 6.14712 4.24836 5.04499C4.24836 3.94286 4.68618 2.88587 5.4655 2.10655C6.24482 1.32722 7.30181 0.889404 8.40394 0.889404ZM8.40394 11.2784C12.9959 11.2784 16.7151 13.138 16.7151 15.4339V17.5117H0.0927734V15.4339C0.0927734 13.138 3.81202 11.2784 8.40394 11.2784Z" fill="#264E86"/>
</svg>
