<svg width="128" height="268" viewBox="0 0 128 268" fill="none" xmlns="http://www.w3.org/2000/svg">
<path d="M8 4C8 6.20914 6.20914 8 4 8C1.79086 8 0 6.20914 0 4C0 1.79086 1.79086 0 4 0C6.20914 0 8 1.79086 8 4Z" fill="#F8E0A3"/>
<path d="M20 4C20 6.20914 18.2091 8 16 8C13.7909 8 12 6.20914 12 4C12 1.79086 13.7909 0 16 0C18.2091 0 20 1.79086 20 4Z" fill="#F8E0A3"/>
<path d="M32 4C32 6.20914 30.2091 8 28 8C25.7909 8 24 6.20914 24 4C24 1.79086 25.7909 0 28 0C30.2091 0 32 1.79086 32 4Z" fill="#F8E0A3"/>
<path d="M44 4C44 6.20914 42.2091 8 40 8C37.7909 8 36 6.20914 36 4C36 1.79086 37.7909 0 40 0C42.2091 0 44 1.79086 44 4Z" fill="#F8E0A3"/>
<path d="M56 4C56 6.20914 54.2091 8 52 8C49.7909 8 48 6.20914 48 4C48 1.79086 49.7909 0 52 0C54.2091 0 56 1.79086 56 4Z" fill="#F8E0A3"/>
<path d="M68 4C68 6.20914 66.2091 8 64 8C61.7909 8 60 6.20914 60 4C60 1.79086 61.7909 0 64 0C66.2091 0 68 1.79086 68 4Z" fill="#F8E0A3"/>
<path d="M80 4C80 6.20914 78.2091 8 76 8C73.7909 8 72 6.20914 72 4C72 1.79086 73.7909 0 76 0C78.2091 0 80 1.79086 80 4Z" fill="#F8E0A3"/>
<path d="M92 4C92 6.20914 90.2091 8 88 8C85.7909 8 84 6.20914 84 4C84 1.79086 85.7909 0 88 0C90.2091 0 92 1.79086 92 4Z" fill="#F8E0A3"/>
<path d="M104 4C104 6.20914 102.209 8 100 8C97.7909 8 96 6.20914 96 4C96 1.79086 97.7909 0 100 0C102.209 0 104 1.79086 104 4Z" fill="#F8E0A3"/>
<path d="M116 4C116 6.20914 114.209 8 112 8C109.791 8 108 6.20914 108 4C108 1.79086 109.791 0 112 0C114.209 0 116 1.79086 116 4Z" fill="#F8E0A3"/>
<path d="M128 4C128 6.20914 126.209 8 124 8C121.791 8 120 6.20914 120 4C120 1.79086 121.791 0 124 0C126.209 0 128 1.79086 128 4Z" fill="#F8E0A3"/>
<path d="M20 16C20 18.2091 18.2091 20 16 20C13.7909 20 12 18.2091 12 16C12 13.7909 13.7909 12 16 12C18.2091 12 20 13.7909 20 16Z" fill="#F8E0A3"/>
<path d="M32 16C32 18.2091 30.2091 20 28 20C25.7909 20 24 18.2091 24 16C24 13.7909 25.7909 12 28 12C30.2091 12 32 13.7909 32 16Z" fill="#F8E0A3"/>
<path d="M44 16C44 18.2091 42.2091 20 40 20C37.7909 20 36 18.2091 36 16C36 13.7909 37.7909 12 40 12C42.2091 12 44 13.7909 44 16Z" fill="#F8E0A3"/>
<path d="M56 16C56 18.2091 54.2091 20 52 20C49.7909 20 48 18.2091 48 16C48 13.7909 49.7909 12 52 12C54.2091 12 56 13.7909 56 16Z" fill="#F8E0A3"/>
<path d="M68 16C68 18.2091 66.2091 20 64 20C61.7909 20 60 18.2091 60 16C60 13.7909 61.7909 12 64 12C66.2091 12 68 13.7909 68 16Z" fill="#F8E0A3"/>
<path d="M80 16C80 18.2091 78.2091 20 76 20C73.7909 20 72 18.2091 72 16C72 13.7909 73.7909 12 76 12C78.2091 12 80 13.7909 80 16Z" fill="#F8E0A3"/>
<path d="M92 16C92 18.2091 90.2091 20 88 20C85.7909 20 84 18.2091 84 16C84 13.7909 85.7909 12 88 12C90.2091 12 92 13.7909 92 16Z" fill="#F8E0A3"/>
<path d="M104 16C104 18.2091 102.209 20 100 20C97.7909 20 96 18.2091 96 16C96 13.7909 97.7909 12 100 12C102.209 12 104 13.7909 104 16Z" fill="#F8E0A3"/>
<path d="M116 16C116 18.2091 114.209 20 112 20C109.791 20 108 18.2091 108 16C108 13.7909 109.791 12 112 12C114.209 12 116 13.7909 116 16Z" fill="#F8E0A3"/>
<path d="M128 16C128 18.2091 126.209 20 124 20C121.791 20 120 18.2091 120 16C120 13.7909 121.791 12 124 12C126.209 12 128 13.7909 128 16Z" fill="#F8E0A3"/>
<path d="M32 28C32 30.2091 30.2091 32 28 32C25.7909 32 24 30.2091 24 28C24 25.7909 25.7909 24 28 24C30.2091 24 32 25.7909 32 28Z" fill="#F8E0A3"/>
<path d="M44 28C44 30.2091 42.2091 32 40 32C37.7909 32 36 30.2091 36 28C36 25.7909 37.7909 24 40 24C42.2091 24 44 25.7909 44 28Z" fill="#F8E0A3"/>
<path d="M56 28C56 30.2091 54.2091 32 52 32C49.7909 32 48 30.2091 48 28C48 25.7909 49.7909 24 52 24C54.2091 24 56 25.7909 56 28Z" fill="#F8E0A3"/>
<path d="M68 28C68 30.2091 66.2091 32 64 32C61.7909 32 60 30.2091 60 28C60 25.7909 61.7909 24 64 24C66.2091 24 68 25.7909 68 28Z" fill="#F8E0A3"/>
<path d="M80 28C80 30.2091 78.2091 32 76 32C73.7909 32 72 30.2091 72 28C72 25.7909 73.7909 24 76 24C78.2091 24 80 25.7909 80 28Z" fill="#F8E0A3"/>
<path d="M92 28C92 30.2091 90.2091 32 88 32C85.7909 32 84 30.2091 84 28C84 25.7909 85.7909 24 88 24C90.2091 24 92 25.7909 92 28Z" fill="#F8E0A3"/>
<path d="M104 28C104 30.2091 102.209 32 100 32C97.7909 32 96 30.2091 96 28C96 25.7909 97.7909 24 100 24C102.209 24 104 25.7909 104 28Z" fill="#F8E0A3"/>
<path d="M116 28C116 30.2091 114.209 32 112 32C109.791 32 108 30.2091 108 28C108 25.7909 109.791 24 112 24C114.209 24 116 25.7909 116 28Z" fill="#F8E0A3"/>
<path d="M128 28C128 30.2091 126.209 32 124 32C121.791 32 120 30.2091 120 28C120 25.7909 121.791 24 124 24C126.209 24 128 25.7909 128 28Z" fill="#F8E0A3"/>
<path d="M44 40C44 42.2091 42.2091 44 40 44C37.7909 44 36 42.2091 36 40C36 37.7909 37.7909 36 40 36C42.2091 36 44 37.7909 44 40Z" fill="#F8E0A3"/>
<path d="M56 40C56 42.2091 54.2091 44 52 44C49.7909 44 48 42.2091 48 40C48 37.7909 49.7909 36 52 36C54.2091 36 56 37.7909 56 40Z" fill="#F8E0A3"/>
<path d="M68 40C68 42.2091 66.2091 44 64 44C61.7909 44 60 42.2091 60 40C60 37.7909 61.7909 36 64 36C66.2091 36 68 37.7909 68 40Z" fill="#F8E0A3"/>
<path d="M80 40C80 42.2091 78.2091 44 76 44C73.7909 44 72 42.2091 72 40C72 37.7909 73.7909 36 76 36C78.2091 36 80 37.7909 80 40Z" fill="#F8E0A3"/>
<path d="M92 40C92 42.2091 90.2091 44 88 44C85.7909 44 84 42.2091 84 40C84 37.7909 85.7909 36 88 36C90.2091 36 92 37.7909 92 40Z" fill="#F8E0A3"/>
<path d="M104 40C104 42.2091 102.209 44 100 44C97.7909 44 96 42.2091 96 40C96 37.7909 97.7909 36 100 36C102.209 36 104 37.7909 104 40Z" fill="#F8E0A3"/>
<path d="M116 40C116 42.2091 114.209 44 112 44C109.791 44 108 42.2091 108 40C108 37.7909 109.791 36 112 36C114.209 36 116 37.7909 116 40Z" fill="#F8E0A3"/>
<path d="M128 40C128 42.2091 126.209 44 124 44C121.791 44 120 42.2091 120 40C120 37.7909 121.791 36 124 36C126.209 36 128 37.7909 128 40Z" fill="#F8E0A3"/>
<path d="M56 52C56 54.2091 54.2091 56 52 56C49.7909 56 48 54.2091 48 52C48 49.7909 49.7909 48 52 48C54.2091 48 56 49.7909 56 52Z" fill="#F8E0A3"/>
<path d="M68 52C68 54.2091 66.2091 56 64 56C61.7909 56 60 54.2091 60 52C60 49.7909 61.7909 48 64 48C66.2091 48 68 49.7909 68 52Z" fill="#F8E0A3"/>
<path d="M80 52C80 54.2091 78.2091 56 76 56C73.7909 56 72 54.2091 72 52C72 49.7909 73.7909 48 76 48C78.2091 48 80 49.7909 80 52Z" fill="#F8E0A3"/>
<path d="M92 52C92 54.2091 90.2091 56 88 56C85.7909 56 84 54.2091 84 52C84 49.7909 85.7909 48 88 48C90.2091 48 92 49.7909 92 52Z" fill="#F8E0A3"/>
<path d="M104 52C104 54.2091 102.209 56 100 56C97.7909 56 96 54.2091 96 52C96 49.7909 97.7909 48 100 48C102.209 48 104 49.7909 104 52Z" fill="#F8E0A3"/>
<path d="M116 52C116 54.2091 114.209 56 112 56C109.791 56 108 54.2091 108 52C108 49.7909 109.791 48 112 48C114.209 48 116 49.7909 116 52Z" fill="#F8E0A3"/>
<path d="M128 52C128 54.2091 126.209 56 124 56C121.791 56 120 54.2091 120 52C120 49.7909 121.791 48 124 48C126.209 48 128 49.7909 128 52Z" fill="#F8E0A3"/>
<path d="M68 64C68 66.2091 66.2091 68 64 68C61.7909 68 60 66.2091 60 64C60 61.7909 61.7909 60 64 60C66.2091 60 68 61.7909 68 64Z" fill="#F8E0A3"/>
<path d="M80 64C80 66.2091 78.2091 68 76 68C73.7909 68 72 66.2091 72 64C72 61.7909 73.7909 60 76 60C78.2091 60 80 61.7909 80 64Z" fill="#F8E0A3"/>
<path d="M92 64C92 66.2091 90.2091 68 88 68C85.7909 68 84 66.2091 84 64C84 61.7909 85.7909 60 88 60C90.2091 60 92 61.7909 92 64Z" fill="#F8E0A3"/>
<path d="M104 64C104 66.2091 102.209 68 100 68C97.7909 68 96 66.2091 96 64C96 61.7909 97.7909 60 100 60C102.209 60 104 61.7909 104 64Z" fill="#F8E0A3"/>
<path d="M116 64C116 66.2091 114.209 68 112 68C109.791 68 108 66.2091 108 64C108 61.7909 109.791 60 112 60C114.209 60 116 61.7909 116 64Z" fill="#F8E0A3"/>
<path d="M128 64C128 66.2091 126.209 68 124 68C121.791 68 120 66.2091 120 64C120 61.7909 121.791 60 124 60C126.209 60 128 61.7909 128 64Z" fill="#F8E0A3"/>
<path d="M80 76C80 78.2091 78.2091 80 76 80C73.7909 80 72 78.2091 72 76C72 73.7909 73.7909 72 76 72C78.2091 72 80 73.7909 80 76Z" fill="#F8E0A3"/>
<path d="M92 76C92 78.2091 90.2091 80 88 80C85.7909 80 84 78.2091 84 76C84 73.7909 85.7909 72 88 72C90.2091 72 92 73.7909 92 76Z" fill="#F8E0A3"/>
<path d="M104 76C104 78.2091 102.209 80 100 80C97.7909 80 96 78.2091 96 76C96 73.7909 97.7909 72 100 72C102.209 72 104 73.7909 104 76Z" fill="#F8E0A3"/>
<path d="M116 76C116 78.2091 114.209 80 112 80C109.791 80 108 78.2091 108 76C108 73.7909 109.791 72 112 72C114.209 72 116 73.7909 116 76Z" fill="#F8E0A3"/>
<path d="M128 76C128 78.2091 126.209 80 124 80C121.791 80 120 78.2091 120 76C120 73.7909 121.791 72 124 72C126.209 72 128 73.7909 128 76Z" fill="#F8E0A3"/>
<path d="M92 88C92 90.2091 90.2091 92 88 92C85.7909 92 84 90.2091 84 88C84 85.7909 85.7909 84 88 84C90.2091 84 92 85.7909 92 88Z" fill="#F8E0A3"/>
<path d="M104 88C104 90.2091 102.209 92 100 92C97.7909 92 96 90.2091 96 88C96 85.7909 97.7909 84 100 84C102.209 84 104 85.7909 104 88Z" fill="#F8E0A3"/>
<path d="M116 88C116 90.2091 114.209 92 112 92C109.791 92 108 90.2091 108 88C108 85.7909 109.791 84 112 84C114.209 84 116 85.7909 116 88Z" fill="#F8E0A3"/>
<path d="M128 88C128 90.2091 126.209 92 124 92C121.791 92 120 90.2091 120 88C120 85.7909 121.791 84 124 84C126.209 84 128 85.7909 128 88Z" fill="#F8E0A3"/>
<path d="M104 100C104 102.209 102.209 104 100 104C97.7909 104 96 102.209 96 100C96 97.7909 97.7909 96 100 96C102.209 96 104 97.7909 104 100Z" fill="#F8E0A3"/>
<path d="M116 100C116 102.209 114.209 104 112 104C109.791 104 108 102.209 108 100C108 97.7909 109.791 96 112 96C114.209 96 116 97.7909 116 100Z" fill="#F8E0A3"/>
<path d="M128 100C128 102.209 126.209 104 124 104C121.791 104 120 102.209 120 100C120 97.7909 121.791 96 124 96C126.209 96 128 97.7909 128 100Z" fill="#F8E0A3"/>
<path d="M116 112C116 114.209 114.209 116 112 116C109.791 116 108 114.209 108 112C108 109.791 109.791 108 112 108C114.209 108 116 109.791 116 112Z" fill="#F8E0A3"/>
<path d="M128 112C128 114.209 126.209 116 124 116C121.791 116 120 114.209 120 112C120 109.791 121.791 108 124 108C126.209 108 128 109.791 128 112Z" fill="#F8E0A3"/>
<path d="M128 124C128 126.209 126.209 128 124 128C121.791 128 120 126.209 120 124C120 121.791 121.791 120 124 120C126.209 120 128 121.791 128 124Z" fill="#F8E0A3"/>
<path d="M120 264C120 261.791 121.791 260 124 260C126.209 260 128 261.791 128 264C128 266.209 126.209 268 124 268C121.791 268 120 266.209 120 264Z" fill="#F8E0A3"/>
<path d="M108 264C108 261.791 109.791 260 112 260C114.209 260 116 261.791 116 264C116 266.209 114.209 268 112 268C109.791 268 108 266.209 108 264Z" fill="#F8E0A3"/>
<path d="M96 264C96 261.791 97.7909 260 100 260C102.209 260 104 261.791 104 264C104 266.209 102.209 268 100 268C97.7909 268 96 266.209 96 264Z" fill="#F8E0A3"/>
<path d="M84 264C84 261.791 85.7909 260 88 260C90.2091 260 92 261.791 92 264C92 266.209 90.2091 268 88 268C85.7909 268 84 266.209 84 264Z" fill="#F8E0A3"/>
<path d="M72 264C72 261.791 73.7909 260 76 260C78.2091 260 80 261.791 80 264C80 266.209 78.2091 268 76 268C73.7909 268 72 266.209 72 264Z" fill="#F8E0A3"/>
<path d="M60 264C60 261.791 61.7909 260 64 260C66.2091 260 68 261.791 68 264C68 266.209 66.2091 268 64 268C61.7909 268 60 266.209 60 264Z" fill="#F8E0A3"/>
<path d="M48 264C48 261.791 49.7909 260 52 260C54.2091 260 56 261.791 56 264C56 266.209 54.2091 268 52 268C49.7909 268 48 266.209 48 264Z" fill="#F8E0A3"/>
<path d="M36 264C36 261.791 37.7909 260 40 260C42.2091 260 44 261.791 44 264C44 266.209 42.2091 268 40 268C37.7909 268 36 266.209 36 264Z" fill="#F8E0A3"/>
<path d="M24 264C24 261.791 25.7909 260 28 260C30.2091 260 32 261.791 32 264C32 266.209 30.2091 268 28 268C25.7909 268 24 266.209 24 264Z" fill="#F8E0A3"/>
<path d="M12 264C12 261.791 13.7909 260 16 260C18.2091 260 20 261.791 20 264C20 266.209 18.2091 268 16 268C13.7909 268 12 266.209 12 264Z" fill="#F8E0A3"/>
<path d="M0 264C0 261.791 1.79086 260 4 260C6.20914 260 8 261.791 8 264C8 266.209 6.20914 268 4 268C1.79086 268 0 266.209 0 264Z" fill="#F8E0A3"/>
<path d="M108 252C108 249.791 109.791 248 112 248C114.209 248 116 249.791 116 252C116 254.209 114.209 256 112 256C109.791 256 108 254.209 108 252Z" fill="#F8E0A3"/>
<path d="M96 252C96 249.791 97.7909 248 100 248C102.209 248 104 249.791 104 252C104 254.209 102.209 256 100 256C97.7909 256 96 254.209 96 252Z" fill="#F8E0A3"/>
<path d="M84 252C84 249.791 85.7909 248 88 248C90.2091 248 92 249.791 92 252C92 254.209 90.2091 256 88 256C85.7909 256 84 254.209 84 252Z" fill="#F8E0A3"/>
<path d="M72 252C72 249.791 73.7909 248 76 248C78.2091 248 80 249.791 80 252C80 254.209 78.2091 256 76 256C73.7909 256 72 254.209 72 252Z" fill="#F8E0A3"/>
<path d="M60 252C60 249.791 61.7909 248 64 248C66.2091 248 68 249.791 68 252C68 254.209 66.2091 256 64 256C61.7909 256 60 254.209 60 252Z" fill="#F8E0A3"/>
<path d="M48 252C48 249.791 49.7909 248 52 248C54.2091 248 56 249.791 56 252C56 254.209 54.2091 256 52 256C49.7909 256 48 254.209 48 252Z" fill="#F8E0A3"/>
<path d="M36 252C36 249.791 37.7909 248 40 248C42.2091 248 44 249.791 44 252C44 254.209 42.2091 256 40 256C37.7909 256 36 254.209 36 252Z" fill="#F8E0A3"/>
<path d="M24 252C24 249.791 25.7909 248 28 248C30.2091 248 32 249.791 32 252C32 254.209 30.2091 256 28 256C25.7909 256 24 254.209 24 252Z" fill="#F8E0A3"/>
<path d="M12 252C12 249.791 13.7909 248 16 248C18.2091 248 20 249.791 20 252C20 254.209 18.2091 256 16 256C13.7909 256 12 254.209 12 252Z" fill="#F8E0A3"/>
<path d="M0 252C0 249.791 1.79086 248 4 248C6.20914 248 8 249.791 8 252C8 254.209 6.20914 256 4 256C1.79086 256 0 254.209 0 252Z" fill="#F8E0A3"/>
<path d="M96 240C96 237.791 97.7909 236 100 236C102.209 236 104 237.791 104 240C104 242.209 102.209 244 100 244C97.7909 244 96 242.209 96 240Z" fill="#F8E0A3"/>
<path d="M84 240C84 237.791 85.7909 236 88 236C90.2091 236 92 237.791 92 240C92 242.209 90.2091 244 88 244C85.7909 244 84 242.209 84 240Z" fill="#F8E0A3"/>
<path d="M72 240C72 237.791 73.7909 236 76 236C78.2091 236 80 237.791 80 240C80 242.209 78.2091 244 76 244C73.7909 244 72 242.209 72 240Z" fill="#F8E0A3"/>
<path d="M60 240C60 237.791 61.7909 236 64 236C66.2091 236 68 237.791 68 240C68 242.209 66.2091 244 64 244C61.7909 244 60 242.209 60 240Z" fill="#F8E0A3"/>
<path d="M48 240C48 237.791 49.7909 236 52 236C54.2091 236 56 237.791 56 240C56 242.209 54.2091 244 52 244C49.7909 244 48 242.209 48 240Z" fill="#F8E0A3"/>
<path d="M36 240C36 237.791 37.7909 236 40 236C42.2091 236 44 237.791 44 240C44 242.209 42.2091 244 40 244C37.7909 244 36 242.209 36 240Z" fill="#F8E0A3"/>
<path d="M24 240C24 237.791 25.7909 236 28 236C30.2091 236 32 237.791 32 240C32 242.209 30.2091 244 28 244C25.7909 244 24 242.209 24 240Z" fill="#F8E0A3"/>
<path d="M12 240C12 237.791 13.7909 236 16 236C18.2091 236 20 237.791 20 240C20 242.209 18.2091 244 16 244C13.7909 244 12 242.209 12 240Z" fill="#F8E0A3"/>
<path d="M0 240C0 237.791 1.79086 236 4 236C6.20914 236 8 237.791 8 240C8 242.209 6.20914 244 4 244C1.79086 244 0 242.209 0 240Z" fill="#F8E0A3"/>
<path d="M84 228C84 225.791 85.7909 224 88 224C90.2091 224 92 225.791 92 228C92 230.209 90.2091 232 88 232C85.7909 232 84 230.209 84 228Z" fill="#F8E0A3"/>
<path d="M72 228C72 225.791 73.7909 224 76 224C78.2091 224 80 225.791 80 228C80 230.209 78.2091 232 76 232C73.7909 232 72 230.209 72 228Z" fill="#F8E0A3"/>
<path d="M60 228C60 225.791 61.7909 224 64 224C66.2091 224 68 225.791 68 228C68 230.209 66.2091 232 64 232C61.7909 232 60 230.209 60 228Z" fill="#F8E0A3"/>
<path d="M48 228C48 225.791 49.7909 224 52 224C54.2091 224 56 225.791 56 228C56 230.209 54.2091 232 52 232C49.7909 232 48 230.209 48 228Z" fill="#F8E0A3"/>
<path d="M36 228C36 225.791 37.7909 224 40 224C42.2091 224 44 225.791 44 228C44 230.209 42.2091 232 40 232C37.7909 232 36 230.209 36 228Z" fill="#F8E0A3"/>
<path d="M24 228C24 225.791 25.7909 224 28 224C30.2091 224 32 225.791 32 228C32 230.209 30.2091 232 28 232C25.7909 232 24 230.209 24 228Z" fill="#F8E0A3"/>
<path d="M12 228C12 225.791 13.7909 224 16 224C18.2091 224 20 225.791 20 228C20 230.209 18.2091 232 16 232C13.7909 232 12 230.209 12 228Z" fill="#F8E0A3"/>
<path d="M0 228C0 225.791 1.79086 224 4 224C6.20914 224 8 225.791 8 228C8 230.209 6.20914 232 4 232C1.79086 232 0 230.209 0 228Z" fill="#F8E0A3"/>
<path d="M72 216C72 213.791 73.7909 212 76 212C78.2091 212 80 213.791 80 216C80 218.209 78.2091 220 76 220C73.7909 220 72 218.209 72 216Z" fill="#F8E0A3"/>
<path d="M60 216C60 213.791 61.7909 212 64 212C66.2091 212 68 213.791 68 216C68 218.209 66.2091 220 64 220C61.7909 220 60 218.209 60 216Z" fill="#F8E0A3"/>
<path d="M48 216C48 213.791 49.7909 212 52 212C54.2091 212 56 213.791 56 216C56 218.209 54.2091 220 52 220C49.7909 220 48 218.209 48 216Z" fill="#F8E0A3"/>
<path d="M36 216C36 213.791 37.7909 212 40 212C42.2091 212 44 213.791 44 216C44 218.209 42.2091 220 40 220C37.7909 220 36 218.209 36 216Z" fill="#F8E0A3"/>
<path d="M24 216C24 213.791 25.7909 212 28 212C30.2091 212 32 213.791 32 216C32 218.209 30.2091 220 28 220C25.7909 220 24 218.209 24 216Z" fill="#F8E0A3"/>
<path d="M12 216C12 213.791 13.7909 212 16 212C18.2091 212 20 213.791 20 216C20 218.209 18.2091 220 16 220C13.7909 220 12 218.209 12 216Z" fill="#F8E0A3"/>
<path d="M0 216C0 213.791 1.79086 212 4 212C6.20914 212 8 213.791 8 216C8 218.209 6.20914 220 4 220C1.79086 220 0 218.209 0 216Z" fill="#F8E0A3"/>
<path d="M60 204C60 201.791 61.7909 200 64 200C66.2091 200 68 201.791 68 204C68 206.209 66.2091 208 64 208C61.7909 208 60 206.209 60 204Z" fill="#F8E0A3"/>
<path d="M48 204C48 201.791 49.7909 200 52 200C54.2091 200 56 201.791 56 204C56 206.209 54.2091 208 52 208C49.7909 208 48 206.209 48 204Z" fill="#F8E0A3"/>
<path d="M36 204C36 201.791 37.7909 200 40 200C42.2091 200 44 201.791 44 204C44 206.209 42.2091 208 40 208C37.7909 208 36 206.209 36 204Z" fill="#F8E0A3"/>
<path d="M24 204C24 201.791 25.7909 200 28 200C30.2091 200 32 201.791 32 204C32 206.209 30.2091 208 28 208C25.7909 208 24 206.209 24 204Z" fill="#F8E0A3"/>
<path d="M12 204C12 201.791 13.7909 200 16 200C18.2091 200 20 201.791 20 204C20 206.209 18.2091 208 16 208C13.7909 208 12 206.209 12 204Z" fill="#F8E0A3"/>
<path d="M0 204C0 201.791 1.79086 200 4 200C6.20914 200 8 201.791 8 204C8 206.209 6.20914 208 4 208C1.79086 208 0 206.209 0 204Z" fill="#F8E0A3"/>
<path d="M48 192C48 189.791 49.7909 188 52 188C54.2091 188 56 189.791 56 192C56 194.209 54.2091 196 52 196C49.7909 196 48 194.209 48 192Z" fill="#F8E0A3"/>
<path d="M36 192C36 189.791 37.7909 188 40 188C42.2091 188 44 189.791 44 192C44 194.209 42.2091 196 40 196C37.7909 196 36 194.209 36 192Z" fill="#F8E0A3"/>
<path d="M24 192C24 189.791 25.7909 188 28 188C30.2091 188 32 189.791 32 192C32 194.209 30.2091 196 28 196C25.7909 196 24 194.209 24 192Z" fill="#F8E0A3"/>
<path d="M12 192C12 189.791 13.7909 188 16 188C18.2091 188 20 189.791 20 192C20 194.209 18.2091 196 16 196C13.7909 196 12 194.209 12 192Z" fill="#F8E0A3"/>
<path d="M0 192C0 189.791 1.79086 188 4 188C6.20914 188 8 189.791 8 192C8 194.209 6.20914 196 4 196C1.79086 196 0 194.209 0 192Z" fill="#F8E0A3"/>
<path d="M36 180C36 177.791 37.7909 176 40 176C42.2091 176 44 177.791 44 180C44 182.209 42.2091 184 40 184C37.7909 184 36 182.209 36 180Z" fill="#F8E0A3"/>
<path d="M24 180C24 177.791 25.7909 176 28 176C30.2091 176 32 177.791 32 180C32 182.209 30.2091 184 28 184C25.7909 184 24 182.209 24 180Z" fill="#F8E0A3"/>
<path d="M12 180C12 177.791 13.7909 176 16 176C18.2091 176 20 177.791 20 180C20 182.209 18.2091 184 16 184C13.7909 184 12 182.209 12 180Z" fill="#F8E0A3"/>
<path d="M0 180C0 177.791 1.79086 176 4 176C6.20914 176 8 177.791 8 180C8 182.209 6.20914 184 4 184C1.79086 184 0 182.209 0 180Z" fill="#F8E0A3"/>
<path d="M24 168C24 165.791 25.7909 164 28 164C30.2091 164 32 165.791 32 168C32 170.209 30.2091 172 28 172C25.7909 172 24 170.209 24 168Z" fill="#F8E0A3"/>
<path d="M12 168C12 165.791 13.7909 164 16 164C18.2091 164 20 165.791 20 168C20 170.209 18.2091 172 16 172C13.7909 172 12 170.209 12 168Z" fill="#F8E0A3"/>
<path d="M0 168C0 165.791 1.79086 164 4 164C6.20914 164 8 165.791 8 168C8 170.209 6.20914 172 4 172C1.79086 172 0 170.209 0 168Z" fill="#F8E0A3"/>
<path d="M12 156C12 153.791 13.7909 152 16 152C18.2091 152 20 153.791 20 156C20 158.209 18.2091 160 16 160C13.7909 160 12 158.209 12 156Z" fill="#F8E0A3"/>
<path d="M0 156C0 153.791 1.79086 152 4 152C6.20914 152 8 153.791 8 156C8 158.209 6.20914 160 4 160C1.79086 160 0 158.209 0 156Z" fill="#F8E0A3"/>
<path d="M0 144C0 141.791 1.79086 140 4 140C6.20914 140 8 141.791 8 144C8 146.209 6.20914 148 4 148C1.79086 148 0 146.209 0 144Z" fill="#F8E0A3"/>
</svg>
